G04*
G04 #@! TF.GenerationSoftware,Altium Limited,Altium Designer,19.0.10 (269)*
G04*
G04 Layer_Physical_Order=2*
G04 Layer_Color=16711680*
%FSLAX43Y43*%
%MOMM*%
G71*
G01*
G75*
%ADD11C,0.254*%
%ADD12C,0.127*%
%ADD30C,1.500*%
%ADD31C,1.524*%
%ADD33C,0.508*%
%ADD34C,1.270*%
G36*
X50038Y0D02*
X0D01*
Y50038D01*
X50038D01*
Y0D01*
D02*
G37*
%LPC*%
G36*
X41529Y45225D02*
Y44472D01*
X42282D01*
X42268Y44577D01*
X42179Y44793D01*
X42036Y44979D01*
X41850Y45121D01*
X41634Y45211D01*
X41529Y45225D01*
D02*
G37*
G36*
X41275D02*
X41170Y45211D01*
X40954Y45121D01*
X40768Y44979D01*
X40625Y44793D01*
X40536Y44577D01*
X40522Y44472D01*
X41275D01*
Y45225D01*
D02*
G37*
G36*
X42282Y44218D02*
X41529D01*
Y43465D01*
X41634Y43479D01*
X41850Y43568D01*
X42036Y43711D01*
X42179Y43896D01*
X42268Y44113D01*
X42282Y44218D01*
D02*
G37*
G36*
X41275D02*
X40522D01*
X40536Y44113D01*
X40625Y43896D01*
X40768Y43711D01*
X40954Y43568D01*
X41170Y43479D01*
X41275Y43465D01*
Y44218D01*
D02*
G37*
G36*
X27813Y42557D02*
Y41804D01*
X28566D01*
X28552Y41909D01*
X28463Y42125D01*
X28320Y42311D01*
X28134Y42453D01*
X27918Y42543D01*
X27813Y42557D01*
D02*
G37*
G36*
X27559D02*
X27454Y42543D01*
X27238Y42453D01*
X27052Y42311D01*
X26909Y42125D01*
X26820Y41909D01*
X26806Y41804D01*
X27559D01*
Y42557D01*
D02*
G37*
G36*
X9660Y42521D02*
Y41768D01*
X10413D01*
X10399Y41873D01*
X10309Y42090D01*
X10167Y42275D01*
X9981Y42418D01*
X9765Y42507D01*
X9660Y42521D01*
D02*
G37*
G36*
X9406D02*
X9301Y42507D01*
X9085Y42418D01*
X8899Y42275D01*
X8756Y42090D01*
X8667Y41873D01*
X8653Y41768D01*
X9406D01*
Y42521D01*
D02*
G37*
G36*
X5178Y42430D02*
Y41677D01*
X5930D01*
X5917Y41782D01*
X5827Y41998D01*
X5685Y42184D01*
X5499Y42326D01*
X5283Y42416D01*
X5178Y42430D01*
D02*
G37*
G36*
X4924D02*
X4818Y42416D01*
X4602Y42326D01*
X4416Y42184D01*
X4274Y41998D01*
X4184Y41782D01*
X4171Y41677D01*
X4924D01*
Y42430D01*
D02*
G37*
G36*
X32829Y41773D02*
Y41020D01*
X33582D01*
X33569Y41125D01*
X33479Y41342D01*
X33337Y41527D01*
X33151Y41670D01*
X32935Y41759D01*
X32829Y41773D01*
D02*
G37*
G36*
X32576D02*
X32470Y41759D01*
X32254Y41670D01*
X32068Y41527D01*
X31926Y41342D01*
X31836Y41125D01*
X31823Y41020D01*
X32576D01*
Y41773D01*
D02*
G37*
G36*
X28566Y41550D02*
X27813D01*
Y40797D01*
X27918Y40811D01*
X28134Y40900D01*
X28320Y41043D01*
X28463Y41228D01*
X28552Y41445D01*
X28566Y41550D01*
D02*
G37*
G36*
X27559D02*
X26806D01*
X26820Y41445D01*
X26909Y41228D01*
X27052Y41043D01*
X27238Y40900D01*
X27454Y40811D01*
X27559Y40797D01*
Y41550D01*
D02*
G37*
G36*
X10413Y41514D02*
X9660D01*
Y40761D01*
X9765Y40775D01*
X9981Y40865D01*
X10167Y41007D01*
X10309Y41193D01*
X10399Y41409D01*
X10413Y41514D01*
D02*
G37*
G36*
X9406D02*
X8653D01*
X8667Y41409D01*
X8756Y41193D01*
X8899Y41007D01*
X9085Y40865D01*
X9301Y40775D01*
X9406Y40761D01*
Y41514D01*
D02*
G37*
G36*
X5930Y41423D02*
X5178D01*
Y40670D01*
X5283Y40684D01*
X5499Y40773D01*
X5685Y40916D01*
X5827Y41101D01*
X5917Y41318D01*
X5930Y41423D01*
D02*
G37*
G36*
X4924D02*
X4171D01*
X4184Y41318D01*
X4274Y41101D01*
X4416Y40916D01*
X4602Y40773D01*
X4818Y40684D01*
X4924Y40670D01*
Y41423D01*
D02*
G37*
G36*
X33582Y40766D02*
X32829D01*
Y40013D01*
X32935Y40027D01*
X33151Y40117D01*
X33337Y40259D01*
X33479Y40445D01*
X33569Y40661D01*
X33582Y40766D01*
D02*
G37*
G36*
X32576D02*
X31823D01*
X31836Y40661D01*
X31926Y40445D01*
X32068Y40259D01*
X32254Y40117D01*
X32470Y40027D01*
X32576Y40013D01*
Y40766D01*
D02*
G37*
G36*
X41152Y40250D02*
Y39497D01*
X41905D01*
X41891Y39602D01*
X41801Y39818D01*
X41659Y40004D01*
X41473Y40147D01*
X41257Y40236D01*
X41152Y40250D01*
D02*
G37*
G36*
X40898D02*
X40793Y40236D01*
X40576Y40147D01*
X40391Y40004D01*
X40248Y39818D01*
X40159Y39602D01*
X40145Y39497D01*
X40898D01*
Y40250D01*
D02*
G37*
G36*
X41905Y39243D02*
X41152D01*
Y38490D01*
X41257Y38504D01*
X41473Y38593D01*
X41659Y38736D01*
X41801Y38922D01*
X41891Y39138D01*
X41905Y39243D01*
D02*
G37*
G36*
X40898D02*
X40145D01*
X40159Y39138D01*
X40248Y38922D01*
X40391Y38736D01*
X40576Y38593D01*
X40793Y38504D01*
X40898Y38490D01*
Y39243D01*
D02*
G37*
G36*
X20574Y46235D02*
X20375Y46208D01*
X20190Y46132D01*
X20031Y46009D01*
X19908Y45850D01*
X19832Y45665D01*
X19805Y45466D01*
X19831Y45272D01*
X4297Y29739D01*
X4213Y29613D01*
X4184Y29464D01*
Y23014D01*
X4029Y22895D01*
X3906Y22736D01*
X3830Y22551D01*
X3803Y22352D01*
X3830Y22153D01*
X3906Y21968D01*
X4029Y21809D01*
X4184Y21690D01*
Y18796D01*
X4213Y18647D01*
X4297Y18521D01*
X9377Y13441D01*
X9503Y13357D01*
X9652Y13328D01*
X12928D01*
X12950Y13274D01*
X13091Y13091D01*
X13274Y12950D01*
X13457Y12874D01*
Y11176D01*
X13477Y11077D01*
X13533Y10993D01*
X19847Y4679D01*
X19931Y4623D01*
X20030Y4603D01*
X28469D01*
X28521Y4478D01*
X28644Y4319D01*
X28803Y4196D01*
X28988Y4120D01*
X29187Y4093D01*
X29386Y4120D01*
X29571Y4196D01*
X29730Y4319D01*
X29853Y4478D01*
X29929Y4663D01*
X29956Y4862D01*
X29929Y5061D01*
X29853Y5246D01*
X29730Y5405D01*
X29571Y5528D01*
X29386Y5604D01*
X29187Y5631D01*
X28988Y5604D01*
X28803Y5528D01*
X28644Y5405D01*
X28521Y5246D01*
X28469Y5121D01*
X20137D01*
X13975Y11283D01*
Y12728D01*
X14102Y12781D01*
X15981Y10901D01*
X16107Y10817D01*
X16256Y10788D01*
X22198D01*
X22317Y10633D01*
X22476Y10510D01*
X22661Y10434D01*
X22860Y10407D01*
X23059Y10434D01*
X23244Y10510D01*
X23403Y10633D01*
X23522Y10788D01*
X30226D01*
X30375Y10817D01*
X30501Y10901D01*
X37725Y18126D01*
X37919Y18100D01*
X38118Y18127D01*
X38303Y18203D01*
X38462Y18326D01*
X38585Y18485D01*
X38661Y18670D01*
X38688Y18869D01*
X38661Y19068D01*
X38610Y19193D01*
X45336Y25920D01*
X45392Y26004D01*
X45412Y26103D01*
Y29000D01*
X45537Y29052D01*
X45696Y29175D01*
X45819Y29334D01*
X45895Y29519D01*
X45922Y29718D01*
X45895Y29917D01*
X45819Y30102D01*
X45696Y30261D01*
X45537Y30384D01*
X45352Y30460D01*
X45153Y30487D01*
X44954Y30460D01*
X44769Y30384D01*
X44610Y30261D01*
X44487Y30102D01*
X44411Y29917D01*
X44384Y29718D01*
X44411Y29519D01*
X44487Y29334D01*
X44610Y29175D01*
X44769Y29052D01*
X44894Y29000D01*
Y26210D01*
X38243Y19560D01*
X38118Y19611D01*
X37919Y19638D01*
X37720Y19611D01*
X37535Y19535D01*
X37376Y19412D01*
X37253Y19253D01*
X37177Y19068D01*
X37150Y18869D01*
X37176Y18675D01*
X30065Y11564D01*
X23522D01*
X23403Y11719D01*
X23244Y11842D01*
X23059Y11918D01*
X22860Y11945D01*
X22661Y11918D01*
X22476Y11842D01*
X22317Y11719D01*
X22198Y11564D01*
X16417D01*
X14548Y13433D01*
X14570Y13487D01*
X14601Y13716D01*
X14570Y13945D01*
X14482Y14158D01*
X14341Y14341D01*
X14158Y14482D01*
X13945Y14570D01*
X13716Y14601D01*
X13487Y14570D01*
X13274Y14482D01*
X13091Y14341D01*
X12950Y14158D01*
X12928Y14104D01*
X9813D01*
X4960Y18957D01*
Y21690D01*
X5115Y21809D01*
X5238Y21968D01*
X5290Y22093D01*
X8636D01*
X8735Y22113D01*
X8819Y22169D01*
X10852Y24202D01*
X10977Y24150D01*
X11176Y24123D01*
X11375Y24150D01*
X11560Y24226D01*
X11719Y24349D01*
X11842Y24508D01*
X11918Y24693D01*
X11945Y24892D01*
X11918Y25091D01*
X11842Y25276D01*
X11719Y25435D01*
X11560Y25558D01*
X11375Y25634D01*
X11176Y25661D01*
X10977Y25634D01*
X10792Y25558D01*
X10633Y25435D01*
X10510Y25276D01*
X10434Y25091D01*
X10407Y24892D01*
X10434Y24693D01*
X10486Y24568D01*
X8529Y22611D01*
X5290D01*
X5238Y22736D01*
X5115Y22895D01*
X4960Y23014D01*
Y29303D01*
X20380Y44723D01*
X20574Y44697D01*
X20773Y44724D01*
X20898Y44776D01*
X26525Y39148D01*
Y38818D01*
X26400Y38766D01*
X26241Y38643D01*
X26119Y38484D01*
X26042Y38299D01*
X26016Y38100D01*
X26042Y37901D01*
X26119Y37716D01*
X26241Y37557D01*
X26400Y37434D01*
X26585Y37358D01*
X26784Y37331D01*
X26983Y37358D01*
X27169Y37434D01*
X27328Y37557D01*
X27450Y37716D01*
X27527Y37901D01*
X27553Y38100D01*
X27527Y38299D01*
X27450Y38484D01*
X27328Y38643D01*
X27169Y38766D01*
X27043Y38818D01*
Y39256D01*
X27024Y39355D01*
X26967Y39439D01*
X21264Y45142D01*
X21316Y45267D01*
X21343Y45466D01*
X21316Y45665D01*
X21240Y45850D01*
X21117Y46009D01*
X20958Y46132D01*
X20773Y46208D01*
X20574Y46235D01*
D02*
G37*
G36*
X34163Y37584D02*
Y36703D01*
X35044D01*
X35026Y36841D01*
X34923Y37088D01*
X34761Y37301D01*
X34548Y37463D01*
X34301Y37566D01*
X34163Y37584D01*
D02*
G37*
G36*
X33909D02*
X33771Y37566D01*
X33524Y37463D01*
X33311Y37301D01*
X33149Y37088D01*
X33046Y36841D01*
X33028Y36703D01*
X33909D01*
Y37584D01*
D02*
G37*
G36*
X36576Y37473D02*
X36344Y37442D01*
X36128Y37353D01*
X35942Y37210D01*
X35799Y37024D01*
X35710Y36808D01*
X35679Y36576D01*
X35710Y36344D01*
X35799Y36128D01*
X35942Y35942D01*
X36128Y35799D01*
X36344Y35710D01*
X36576Y35679D01*
X36808Y35710D01*
X37024Y35799D01*
X37210Y35942D01*
X37353Y36128D01*
X37442Y36344D01*
X37473Y36576D01*
X37442Y36808D01*
X37353Y37024D01*
X37210Y37210D01*
X37024Y37353D01*
X36808Y37442D01*
X36576Y37473D01*
D02*
G37*
G36*
X35044Y36449D02*
X34163D01*
Y35568D01*
X34301Y35586D01*
X34548Y35689D01*
X34761Y35851D01*
X34923Y36064D01*
X35026Y36311D01*
X35044Y36449D01*
D02*
G37*
G36*
X33909D02*
X33028D01*
X33046Y36311D01*
X33149Y36064D01*
X33311Y35851D01*
X33524Y35689D01*
X33771Y35586D01*
X33909Y35568D01*
Y36449D01*
D02*
G37*
G36*
X16673Y38088D02*
X16474Y38062D01*
X16289Y37985D01*
X16130Y37863D01*
X16008Y37704D01*
X15931Y37519D01*
X15905Y37320D01*
X15931Y37121D01*
X16008Y36936D01*
X16130Y36776D01*
X16289Y36654D01*
X16474Y36577D01*
X16673Y36551D01*
X16692Y36554D01*
X18619Y34627D01*
X18562Y34489D01*
X18535Y34290D01*
X18562Y34091D01*
X18638Y33906D01*
X18761Y33747D01*
X18920Y33624D01*
X19105Y33548D01*
X19304Y33521D01*
X19503Y33548D01*
X19688Y33624D01*
X19847Y33747D01*
X19970Y33906D01*
X20046Y34091D01*
X20073Y34290D01*
X20046Y34489D01*
X19970Y34674D01*
X19847Y34833D01*
X19688Y34956D01*
X19503Y35032D01*
X19304Y35059D01*
X19105Y35032D01*
X18993Y34986D01*
X17216Y36763D01*
X17217Y36776D01*
X17339Y36936D01*
X17416Y37121D01*
X17442Y37320D01*
X17416Y37519D01*
X17339Y37704D01*
X17217Y37863D01*
X17058Y37985D01*
X16872Y38062D01*
X16673Y38088D01*
D02*
G37*
G36*
X10541Y31897D02*
Y31144D01*
X11294D01*
X11280Y31250D01*
X11191Y31466D01*
X11048Y31652D01*
X10862Y31794D01*
X10646Y31884D01*
X10541Y31897D01*
D02*
G37*
G36*
X10287D02*
X10182Y31884D01*
X9966Y31794D01*
X9780Y31652D01*
X9637Y31466D01*
X9548Y31250D01*
X9534Y31144D01*
X10287D01*
Y31897D01*
D02*
G37*
G36*
X16256Y32381D02*
X16027Y32350D01*
X15814Y32262D01*
X15631Y32121D01*
X15490Y31938D01*
X15402Y31725D01*
X15371Y31496D01*
X15402Y31267D01*
X15490Y31054D01*
X15631Y30871D01*
X15814Y30730D01*
X16027Y30642D01*
X16256Y30611D01*
X16485Y30642D01*
X16698Y30730D01*
X16881Y30871D01*
X17022Y31054D01*
X17110Y31267D01*
X17141Y31496D01*
X17110Y31725D01*
X17022Y31938D01*
X16881Y32121D01*
X16698Y32262D01*
X16485Y32350D01*
X16256Y32381D01*
D02*
G37*
G36*
X13716D02*
X13487Y32350D01*
X13274Y32262D01*
X13091Y32121D01*
X12950Y31938D01*
X12862Y31725D01*
X12831Y31496D01*
X12862Y31267D01*
X12950Y31054D01*
X13091Y30871D01*
X13274Y30730D01*
X13487Y30642D01*
X13716Y30611D01*
X13945Y30642D01*
X14158Y30730D01*
X14341Y30871D01*
X14482Y31054D01*
X14570Y31267D01*
X14601Y31496D01*
X14570Y31725D01*
X14482Y31938D01*
X14341Y32121D01*
X14158Y32262D01*
X13945Y32350D01*
X13716Y32381D01*
D02*
G37*
G36*
X36576Y32393D02*
X36344Y32362D01*
X36128Y32273D01*
X35942Y32130D01*
X35799Y31944D01*
X35710Y31728D01*
X35679Y31496D01*
X35710Y31264D01*
X35799Y31048D01*
X35942Y30862D01*
X36128Y30719D01*
X36344Y30630D01*
X36576Y30599D01*
X36808Y30630D01*
X37024Y30719D01*
X37210Y30862D01*
X37353Y31048D01*
X37442Y31264D01*
X37473Y31496D01*
X37442Y31728D01*
X37353Y31944D01*
X37210Y32130D01*
X37024Y32273D01*
X36808Y32362D01*
X36576Y32393D01*
D02*
G37*
G36*
X34036D02*
X33804Y32362D01*
X33588Y32273D01*
X33402Y32130D01*
X33259Y31944D01*
X33170Y31728D01*
X33139Y31496D01*
X33170Y31264D01*
X33259Y31048D01*
X33402Y30862D01*
X33588Y30719D01*
X33804Y30630D01*
X34036Y30599D01*
X34268Y30630D01*
X34484Y30719D01*
X34670Y30862D01*
X34813Y31048D01*
X34902Y31264D01*
X34933Y31496D01*
X34902Y31728D01*
X34813Y31944D01*
X34670Y32130D01*
X34484Y32273D01*
X34268Y32362D01*
X34036Y32393D01*
D02*
G37*
G36*
X11294Y30890D02*
X10541D01*
Y30138D01*
X10646Y30151D01*
X10862Y30241D01*
X11048Y30383D01*
X11191Y30569D01*
X11280Y30785D01*
X11294Y30890D01*
D02*
G37*
G36*
X10287D02*
X9534D01*
X9548Y30785D01*
X9637Y30569D01*
X9780Y30383D01*
X9966Y30241D01*
X10182Y30151D01*
X10287Y30138D01*
Y30890D01*
D02*
G37*
G36*
X16256Y29841D02*
X16027Y29810D01*
X15814Y29722D01*
X15631Y29581D01*
X15490Y29398D01*
X15402Y29185D01*
X15371Y28956D01*
X15402Y28727D01*
X15490Y28514D01*
X15631Y28331D01*
X15814Y28190D01*
X16027Y28102D01*
X16256Y28071D01*
X16485Y28102D01*
X16698Y28190D01*
X16881Y28331D01*
X17022Y28514D01*
X17110Y28727D01*
X17141Y28956D01*
X17110Y29185D01*
X17022Y29398D01*
X16881Y29581D01*
X16698Y29722D01*
X16485Y29810D01*
X16256Y29841D01*
D02*
G37*
G36*
X36576Y29853D02*
X36344Y29822D01*
X36128Y29733D01*
X35942Y29590D01*
X35799Y29404D01*
X35710Y29188D01*
X35679Y28956D01*
X35710Y28724D01*
X35799Y28508D01*
X35942Y28322D01*
X36128Y28179D01*
X36344Y28090D01*
X36576Y28059D01*
X36808Y28090D01*
X37024Y28179D01*
X37210Y28322D01*
X37353Y28508D01*
X37442Y28724D01*
X37473Y28956D01*
X37442Y29188D01*
X37353Y29404D01*
X37210Y29590D01*
X37024Y29733D01*
X36808Y29822D01*
X36576Y29853D01*
D02*
G37*
G36*
X34036D02*
X33804Y29822D01*
X33588Y29733D01*
X33402Y29590D01*
X33259Y29404D01*
X33170Y29188D01*
X33139Y28956D01*
X33170Y28724D01*
X33259Y28508D01*
X33402Y28322D01*
X33588Y28179D01*
X33804Y28090D01*
X34036Y28059D01*
X34268Y28090D01*
X34484Y28179D01*
X34670Y28322D01*
X34813Y28508D01*
X34902Y28724D01*
X34933Y28956D01*
X34902Y29188D01*
X34813Y29404D01*
X34670Y29590D01*
X34484Y29733D01*
X34268Y29822D01*
X34036Y29853D01*
D02*
G37*
G36*
X40132Y35313D02*
X39933Y35286D01*
X39748Y35210D01*
X39589Y35087D01*
X39466Y34928D01*
X39390Y34743D01*
X39363Y34544D01*
X39390Y34345D01*
X39466Y34160D01*
X39589Y34001D01*
X39748Y33878D01*
X39873Y33826D01*
Y27539D01*
X38310Y25976D01*
X34817D01*
X34765Y26102D01*
X34643Y26261D01*
X34484Y26383D01*
X34298Y26460D01*
X34099Y26486D01*
X33901Y26460D01*
X33715Y26383D01*
X33556Y26261D01*
X33434Y26102D01*
X33357Y25916D01*
X33331Y25718D01*
X33357Y25519D01*
X33434Y25333D01*
X33556Y25174D01*
X33715Y25052D01*
X33901Y24975D01*
X34099Y24949D01*
X34298Y24975D01*
X34484Y25052D01*
X34643Y25174D01*
X34765Y25333D01*
X34817Y25459D01*
X38417D01*
X38517Y25478D01*
X38601Y25534D01*
X40315Y27249D01*
X40371Y27333D01*
X40391Y27432D01*
Y33826D01*
X40516Y33878D01*
X40675Y34001D01*
X40798Y34160D01*
X40874Y34345D01*
X40901Y34544D01*
X40874Y34743D01*
X40798Y34928D01*
X40675Y35087D01*
X40516Y35210D01*
X40331Y35286D01*
X40132Y35313D01*
D02*
G37*
G36*
X8950Y26399D02*
Y25646D01*
X9703D01*
X9689Y25751D01*
X9599Y25968D01*
X9457Y26153D01*
X9271Y26296D01*
X9055Y26385D01*
X8950Y26399D01*
D02*
G37*
G36*
X8696D02*
X8591Y26385D01*
X8374Y26296D01*
X8189Y26153D01*
X8046Y25968D01*
X7957Y25751D01*
X7943Y25646D01*
X8696D01*
Y26399D01*
D02*
G37*
G36*
X41202Y25620D02*
Y24867D01*
X41955D01*
X41942Y24972D01*
X41852Y25188D01*
X41709Y25374D01*
X41524Y25516D01*
X41307Y25606D01*
X41202Y25620D01*
D02*
G37*
G36*
X40948D02*
X40843Y25606D01*
X40627Y25516D01*
X40441Y25374D01*
X40299Y25188D01*
X40209Y24972D01*
X40195Y24867D01*
X40948D01*
Y25620D01*
D02*
G37*
G36*
X9703Y25392D02*
X8950D01*
Y24639D01*
X9055Y24653D01*
X9271Y24743D01*
X9457Y24885D01*
X9599Y25071D01*
X9689Y25287D01*
X9703Y25392D01*
D02*
G37*
G36*
X8696D02*
X7943D01*
X7957Y25287D01*
X8046Y25071D01*
X8189Y24885D01*
X8374Y24743D01*
X8591Y24653D01*
X8696Y24639D01*
Y25392D01*
D02*
G37*
G36*
X41955Y24613D02*
X41202D01*
Y23860D01*
X41307Y23873D01*
X41524Y23963D01*
X41709Y24106D01*
X41852Y24291D01*
X41942Y24508D01*
X41955Y24613D01*
D02*
G37*
G36*
X40948D02*
X40195D01*
X40209Y24508D01*
X40299Y24291D01*
X40441Y24106D01*
X40627Y23963D01*
X40843Y23873D01*
X40948Y23860D01*
Y24613D01*
D02*
G37*
G36*
X32421Y22119D02*
Y21366D01*
X33174D01*
X33160Y21471D01*
X33071Y21687D01*
X32928Y21873D01*
X32743Y22016D01*
X32526Y22105D01*
X32421Y22119D01*
D02*
G37*
G36*
X32167D02*
X32062Y22105D01*
X31846Y22016D01*
X31660Y21873D01*
X31518Y21687D01*
X31428Y21471D01*
X31414Y21366D01*
X32167D01*
Y22119D01*
D02*
G37*
G36*
X19050Y32265D02*
X18851Y32238D01*
X18666Y32162D01*
X18507Y32039D01*
X18384Y31880D01*
X18308Y31695D01*
X18281Y31496D01*
X18308Y31297D01*
X18384Y31112D01*
X18507Y30953D01*
X18666Y30830D01*
X18851Y30754D01*
X19050Y30727D01*
X19249Y30754D01*
X19434Y30830D01*
X19593Y30953D01*
X19716Y31112D01*
X19768Y31237D01*
X24785D01*
X33854Y22168D01*
X33802Y22043D01*
X33775Y21844D01*
X33802Y21645D01*
X33878Y21460D01*
X34001Y21301D01*
X34160Y21178D01*
X34345Y21102D01*
X34544Y21075D01*
X34743Y21102D01*
X34928Y21178D01*
X35087Y21301D01*
X35210Y21460D01*
X35286Y21645D01*
X35313Y21844D01*
X35286Y22043D01*
X35210Y22228D01*
X35087Y22387D01*
X34928Y22510D01*
X34743Y22586D01*
X34544Y22613D01*
X34345Y22586D01*
X34220Y22534D01*
X25075Y31679D01*
X24991Y31735D01*
X24892Y31755D01*
X19768D01*
X19716Y31880D01*
X19593Y32039D01*
X19434Y32162D01*
X19249Y32238D01*
X19050Y32265D01*
D02*
G37*
G36*
X13716Y29841D02*
X13487Y29810D01*
X13274Y29722D01*
X13091Y29581D01*
X12950Y29398D01*
X12862Y29185D01*
X12831Y28956D01*
X12862Y28727D01*
X12950Y28514D01*
X13091Y28331D01*
X13274Y28190D01*
X13487Y28102D01*
X13584Y28089D01*
Y22508D01*
X13427Y22387D01*
X13304Y22228D01*
X13228Y22043D01*
X13201Y21844D01*
X13228Y21645D01*
X13304Y21460D01*
X13427Y21301D01*
X13586Y21178D01*
X13771Y21102D01*
X13970Y21075D01*
X14169Y21102D01*
X14354Y21178D01*
X14513Y21301D01*
X14636Y21460D01*
X14712Y21645D01*
X14739Y21844D01*
X14712Y22043D01*
X14636Y22228D01*
X14513Y22387D01*
X14354Y22510D01*
X14169Y22586D01*
X14102Y22595D01*
Y28167D01*
X14158Y28190D01*
X14341Y28331D01*
X14482Y28514D01*
X14570Y28727D01*
X14601Y28956D01*
X14570Y29185D01*
X14482Y29398D01*
X14341Y29581D01*
X14158Y29722D01*
X13945Y29810D01*
X13716Y29841D01*
D02*
G37*
G36*
X41477Y21200D02*
Y20447D01*
X42230D01*
X42216Y20552D01*
X42127Y20768D01*
X41984Y20954D01*
X41798Y21097D01*
X41582Y21186D01*
X41477Y21200D01*
D02*
G37*
G36*
X41223D02*
X41118Y21186D01*
X40902Y21097D01*
X40716Y20954D01*
X40574Y20768D01*
X40484Y20552D01*
X40470Y20447D01*
X41223D01*
Y21200D01*
D02*
G37*
G36*
X33174Y21112D02*
X32421D01*
Y20359D01*
X32526Y20373D01*
X32743Y20462D01*
X32928Y20605D01*
X33071Y20791D01*
X33160Y21007D01*
X33174Y21112D01*
D02*
G37*
G36*
X32167D02*
X31414D01*
X31428Y21007D01*
X31518Y20791D01*
X31660Y20605D01*
X31846Y20462D01*
X32062Y20373D01*
X32167Y20359D01*
Y21112D01*
D02*
G37*
G36*
X42230Y20193D02*
X41477D01*
Y19440D01*
X41582Y19454D01*
X41798Y19543D01*
X41984Y19686D01*
X42127Y19872D01*
X42216Y20088D01*
X42230Y20193D01*
D02*
G37*
G36*
X41223D02*
X40470D01*
X40484Y20088D01*
X40574Y19872D01*
X40716Y19686D01*
X40902Y19543D01*
X41118Y19454D01*
X41223Y19440D01*
Y20193D01*
D02*
G37*
G36*
X26226Y17961D02*
Y17208D01*
X26978D01*
X26965Y17314D01*
X26875Y17530D01*
X26733Y17716D01*
X26547Y17858D01*
X26331Y17948D01*
X26226Y17961D01*
D02*
G37*
G36*
X25972D02*
X25866Y17948D01*
X25650Y17858D01*
X25464Y17716D01*
X25322Y17530D01*
X25232Y17314D01*
X25219Y17208D01*
X25972D01*
Y17961D01*
D02*
G37*
G36*
X11430Y18955D02*
X11231Y18929D01*
X11046Y18852D01*
X10887Y18730D01*
X10764Y18571D01*
X10688Y18385D01*
X10661Y18186D01*
X10688Y17987D01*
X10764Y17802D01*
X10887Y17643D01*
X11046Y17521D01*
X11231Y17444D01*
X11430Y17418D01*
X11629Y17444D01*
X11814Y17521D01*
X11973Y17643D01*
X12096Y17802D01*
X12122Y17865D01*
X14571D01*
X14589Y17733D01*
X14665Y17548D01*
X14788Y17389D01*
X14947Y17267D01*
X15132Y17190D01*
X15331Y17164D01*
X15530Y17190D01*
X15715Y17267D01*
X15874Y17389D01*
X15997Y17548D01*
X16073Y17733D01*
X16100Y17932D01*
X16073Y18131D01*
X15997Y18317D01*
X15874Y18476D01*
X15715Y18598D01*
X15530Y18675D01*
X15331Y18701D01*
X15132Y18675D01*
X14947Y18598D01*
X14788Y18476D01*
X14665Y18317D01*
X14639Y18254D01*
X12190D01*
X12172Y18385D01*
X12096Y18571D01*
X11973Y18730D01*
X11814Y18852D01*
X11629Y18929D01*
X11430Y18955D01*
D02*
G37*
G36*
X16383Y17252D02*
Y16383D01*
X17252D01*
X17234Y16518D01*
X17133Y16762D01*
X16972Y16972D01*
X16762Y17133D01*
X16518Y17234D01*
X16383Y17252D01*
D02*
G37*
G36*
X16129D02*
X15994Y17234D01*
X15750Y17133D01*
X15540Y16972D01*
X15379Y16762D01*
X15278Y16518D01*
X15260Y16383D01*
X16129D01*
Y17252D01*
D02*
G37*
G36*
X26978Y16955D02*
X26226D01*
Y16202D01*
X26331Y16215D01*
X26547Y16305D01*
X26733Y16447D01*
X26875Y16633D01*
X26965Y16849D01*
X26978Y16955D01*
D02*
G37*
G36*
X25972D02*
X25219D01*
X25232Y16849D01*
X25322Y16633D01*
X25464Y16447D01*
X25650Y16305D01*
X25866Y16215D01*
X25972Y16202D01*
Y16955D01*
D02*
G37*
G36*
X13716Y17141D02*
X13487Y17110D01*
X13274Y17022D01*
X13091Y16881D01*
X12950Y16698D01*
X12862Y16485D01*
X12831Y16256D01*
X12862Y16027D01*
X12950Y15814D01*
X13091Y15631D01*
X13274Y15490D01*
X13487Y15402D01*
X13716Y15371D01*
X13945Y15402D01*
X14158Y15490D01*
X14341Y15631D01*
X14482Y15814D01*
X14570Y16027D01*
X14601Y16256D01*
X14570Y16485D01*
X14482Y16698D01*
X14341Y16881D01*
X14158Y17022D01*
X13945Y17110D01*
X13716Y17141D01*
D02*
G37*
G36*
X17252Y16129D02*
X16383D01*
Y15260D01*
X16518Y15278D01*
X16762Y15379D01*
X16972Y15540D01*
X17133Y15750D01*
X17234Y15994D01*
X17252Y16129D01*
D02*
G37*
G36*
X16129D02*
X15260D01*
X15278Y15994D01*
X15379Y15750D01*
X15540Y15540D01*
X15750Y15379D01*
X15994Y15278D01*
X16129Y15260D01*
Y16129D01*
D02*
G37*
G36*
X36957Y15647D02*
Y14894D01*
X37710D01*
X37696Y15000D01*
X37607Y15216D01*
X37464Y15402D01*
X37278Y15544D01*
X37062Y15634D01*
X36957Y15647D01*
D02*
G37*
G36*
X36703D02*
X36598Y15634D01*
X36382Y15544D01*
X36196Y15402D01*
X36053Y15216D01*
X35964Y15000D01*
X35950Y14894D01*
X36703D01*
Y15647D01*
D02*
G37*
G36*
X37710Y14640D02*
X36957D01*
Y13888D01*
X37062Y13901D01*
X37278Y13991D01*
X37464Y14133D01*
X37607Y14319D01*
X37696Y14535D01*
X37710Y14640D01*
D02*
G37*
G36*
X36703D02*
X35950D01*
X35964Y14535D01*
X36053Y14319D01*
X36196Y14133D01*
X36382Y13991D01*
X36598Y13901D01*
X36703Y13888D01*
Y14640D01*
D02*
G37*
G36*
X13716Y34297D02*
X13517Y34270D01*
X13332Y34194D01*
X13173Y34071D01*
X13050Y33912D01*
X12974Y33727D01*
X12947Y33528D01*
X12974Y33329D01*
X13050Y33144D01*
X13173Y32985D01*
X13332Y32862D01*
X13517Y32786D01*
X13716Y32759D01*
X13915Y32786D01*
X14040Y32838D01*
X14727Y32151D01*
Y25590D01*
X14747Y25491D01*
X14803Y25407D01*
X25617Y14593D01*
X25547Y14423D01*
X25520Y14224D01*
X25547Y14025D01*
X25623Y13840D01*
X25746Y13681D01*
X25905Y13558D01*
X26090Y13482D01*
X26289Y13455D01*
X26488Y13482D01*
X26673Y13558D01*
X26832Y13681D01*
X26955Y13840D01*
X27031Y14025D01*
X27058Y14224D01*
X27031Y14423D01*
X26955Y14608D01*
X26832Y14767D01*
X26673Y14890D01*
X26488Y14966D01*
X26289Y14993D01*
X26090Y14966D01*
X26010Y14933D01*
X15245Y25698D01*
Y32258D01*
X15225Y32357D01*
X15169Y32441D01*
X14406Y33204D01*
X14458Y33329D01*
X14485Y33528D01*
X14458Y33727D01*
X14382Y33912D01*
X14259Y34071D01*
X14100Y34194D01*
X13915Y34270D01*
X13716Y34297D01*
D02*
G37*
G36*
X16256Y14601D02*
X16027Y14570D01*
X15814Y14482D01*
X15631Y14341D01*
X15490Y14158D01*
X15402Y13945D01*
X15371Y13716D01*
X15402Y13487D01*
X15490Y13274D01*
X15631Y13091D01*
X15814Y12950D01*
X16027Y12862D01*
X16256Y12831D01*
X16485Y12862D01*
X16698Y12950D01*
X16881Y13091D01*
X17022Y13274D01*
X17110Y13487D01*
X17141Y13716D01*
X17110Y13945D01*
X17022Y14158D01*
X16881Y14341D01*
X16698Y14482D01*
X16485Y14570D01*
X16256Y14601D01*
D02*
G37*
G36*
X8068Y11385D02*
Y10632D01*
X8821D01*
X8807Y10737D01*
X8718Y10953D01*
X8575Y11139D01*
X8390Y11281D01*
X8173Y11371D01*
X8068Y11385D01*
D02*
G37*
G36*
X7814D02*
X7709Y11371D01*
X7493Y11281D01*
X7307Y11139D01*
X7165Y10953D01*
X7075Y10737D01*
X7061Y10632D01*
X7814D01*
Y11385D01*
D02*
G37*
G36*
X8821Y10378D02*
X8068D01*
Y9625D01*
X8173Y9639D01*
X8390Y9728D01*
X8575Y9871D01*
X8718Y10056D01*
X8807Y10273D01*
X8821Y10378D01*
D02*
G37*
G36*
X7814D02*
X7061D01*
X7075Y10273D01*
X7165Y10056D01*
X7307Y9871D01*
X7493Y9728D01*
X7709Y9639D01*
X7814Y9625D01*
Y10378D01*
D02*
G37*
G36*
X19939Y9470D02*
Y8717D01*
X20692D01*
X20678Y8822D01*
X20589Y9038D01*
X20446Y9224D01*
X20260Y9367D01*
X20044Y9456D01*
X19939Y9470D01*
D02*
G37*
G36*
X19685D02*
X19580Y9456D01*
X19364Y9367D01*
X19178Y9224D01*
X19035Y9038D01*
X18946Y8822D01*
X18932Y8717D01*
X19685D01*
Y9470D01*
D02*
G37*
G36*
X38989Y9114D02*
Y8361D01*
X39742D01*
X39728Y8466D01*
X39639Y8683D01*
X39496Y8868D01*
X39310Y9011D01*
X39094Y9100D01*
X38989Y9114D01*
D02*
G37*
G36*
X38735D02*
X38630Y9100D01*
X38414Y9011D01*
X38228Y8868D01*
X38085Y8683D01*
X37996Y8466D01*
X37982Y8361D01*
X38735D01*
Y9114D01*
D02*
G37*
G36*
X43815Y9008D02*
Y8255D01*
X44568D01*
X44554Y8360D01*
X44465Y8576D01*
X44322Y8762D01*
X44136Y8905D01*
X43920Y8994D01*
X43815Y9008D01*
D02*
G37*
G36*
X43561D02*
X43456Y8994D01*
X43240Y8905D01*
X43054Y8762D01*
X42911Y8576D01*
X42822Y8360D01*
X42808Y8255D01*
X43561D01*
Y9008D01*
D02*
G37*
G36*
X14697Y8656D02*
Y7904D01*
X15450D01*
X15437Y8009D01*
X15347Y8225D01*
X15204Y8411D01*
X15019Y8553D01*
X14802Y8643D01*
X14697Y8656D01*
D02*
G37*
G36*
X14443D02*
X14338Y8643D01*
X14122Y8553D01*
X13936Y8411D01*
X13794Y8225D01*
X13704Y8009D01*
X13690Y7904D01*
X14443D01*
Y8656D01*
D02*
G37*
G36*
X20692Y8463D02*
X19939D01*
Y7710D01*
X20044Y7724D01*
X20260Y7813D01*
X20446Y7956D01*
X20589Y8142D01*
X20678Y8358D01*
X20692Y8463D01*
D02*
G37*
G36*
X19685D02*
X18932D01*
X18946Y8358D01*
X19035Y8142D01*
X19178Y7956D01*
X19364Y7813D01*
X19580Y7724D01*
X19685Y7710D01*
Y8463D01*
D02*
G37*
G36*
X34798Y14231D02*
X34599Y14204D01*
X34414Y14128D01*
X34255Y14005D01*
X34132Y13846D01*
X34056Y13661D01*
X34029Y13462D01*
X34056Y13263D01*
X34132Y13078D01*
X34255Y12919D01*
X34412Y12798D01*
Y8879D01*
X34345Y8870D01*
X34160Y8794D01*
X34001Y8671D01*
X33878Y8512D01*
X33802Y8327D01*
X33775Y8128D01*
X33802Y7929D01*
X33878Y7744D01*
X34001Y7585D01*
X34160Y7462D01*
X34345Y7386D01*
X34544Y7359D01*
X34743Y7386D01*
X34928Y7462D01*
X35087Y7585D01*
X35210Y7744D01*
X35286Y7929D01*
X35313Y8128D01*
X35286Y8327D01*
X35210Y8512D01*
X35087Y8671D01*
X34930Y8792D01*
Y12711D01*
X34997Y12720D01*
X35182Y12796D01*
X35341Y12919D01*
X35464Y13078D01*
X35540Y13263D01*
X35567Y13462D01*
X35540Y13661D01*
X35464Y13846D01*
X35341Y14005D01*
X35182Y14128D01*
X34997Y14204D01*
X34798Y14231D01*
D02*
G37*
G36*
X39742Y8107D02*
X38989D01*
Y7354D01*
X39094Y7368D01*
X39310Y7458D01*
X39496Y7600D01*
X39639Y7786D01*
X39728Y8002D01*
X39742Y8107D01*
D02*
G37*
G36*
X38735D02*
X37982D01*
X37996Y8002D01*
X38085Y7786D01*
X38228Y7600D01*
X38414Y7458D01*
X38630Y7368D01*
X38735Y7354D01*
Y8107D01*
D02*
G37*
G36*
X44568Y8001D02*
X43815D01*
Y7248D01*
X43920Y7262D01*
X44136Y7351D01*
X44322Y7494D01*
X44465Y7680D01*
X44554Y7896D01*
X44568Y8001D01*
D02*
G37*
G36*
X43561D02*
X42808D01*
X42822Y7896D01*
X42911Y7680D01*
X43054Y7494D01*
X43240Y7351D01*
X43456Y7262D01*
X43561Y7248D01*
Y8001D01*
D02*
G37*
G36*
X15450Y7649D02*
X14697D01*
Y6897D01*
X14802Y6910D01*
X15019Y7000D01*
X15204Y7142D01*
X15347Y7328D01*
X15437Y7544D01*
X15450Y7649D01*
D02*
G37*
G36*
X14443D02*
X13690D01*
X13704Y7544D01*
X13794Y7328D01*
X13936Y7142D01*
X14122Y7000D01*
X14338Y6910D01*
X14443Y6897D01*
Y7649D01*
D02*
G37*
G36*
X8255Y6504D02*
Y5751D01*
X9008D01*
X8994Y5856D01*
X8905Y6072D01*
X8762Y6258D01*
X8576Y6401D01*
X8360Y6490D01*
X8255Y6504D01*
D02*
G37*
G36*
X8001D02*
X7896Y6490D01*
X7680Y6401D01*
X7494Y6258D01*
X7351Y6072D01*
X7262Y5856D01*
X7248Y5751D01*
X8001D01*
Y6504D01*
D02*
G37*
G36*
X9008Y5497D02*
X8255D01*
Y4744D01*
X8360Y4758D01*
X8576Y4847D01*
X8762Y4990D01*
X8905Y5176D01*
X8994Y5392D01*
X9008Y5497D01*
D02*
G37*
G36*
X8001D02*
X7248D01*
X7262Y5392D01*
X7351Y5176D01*
X7494Y4990D01*
X7680Y4847D01*
X7896Y4758D01*
X8001Y4744D01*
Y5497D01*
D02*
G37*
%LPD*%
D11*
X16673Y36939D02*
Y37320D01*
Y36939D02*
X19304Y34308D01*
Y34290D02*
Y34308D01*
X13843Y21971D02*
X13970Y21844D01*
X13843Y21971D02*
Y28829D01*
X13716Y28956D02*
X13843Y28829D01*
X40132Y27432D02*
Y34544D01*
X38417Y25718D02*
X40132Y27432D01*
X34099Y25718D02*
X38417D01*
X34671Y13335D02*
X34798Y13462D01*
X34671Y8255D02*
Y13335D01*
X34544Y8128D02*
X34671Y8255D01*
X14986Y25590D02*
X26289Y14288D01*
X14986Y25590D02*
Y32258D01*
X8636Y22352D02*
X11176Y24892D01*
X4572Y22352D02*
X8636D01*
X13716Y33528D02*
X14986Y32258D01*
X24892Y31496D02*
X34544Y21844D01*
X19050Y31496D02*
X24892D01*
X20574Y45466D02*
X26784Y39256D01*
Y38100D02*
Y39256D01*
X13716Y13716D02*
Y13970D01*
Y11176D02*
Y13716D01*
Y11176D02*
X20030Y4862D01*
X45153Y26103D02*
Y29718D01*
X37919Y18869D02*
X45153Y26103D01*
X20030Y4862D02*
X29187D01*
D12*
X15204Y18059D02*
X15331Y17932D01*
X11557Y18059D02*
X15204D01*
X11430Y18186D02*
X11557Y18059D01*
D30*
X13716Y13716D02*
D03*
Y16256D02*
D03*
Y28956D02*
D03*
Y31496D02*
D03*
X16256D02*
D03*
Y28956D02*
D03*
Y16256D02*
D03*
Y13716D02*
D03*
D31*
X36576Y28956D02*
D03*
X34036D02*
D03*
X36576Y31496D02*
D03*
X34036D02*
D03*
X36576Y36576D02*
D03*
X34036D02*
D03*
D33*
X4572Y18796D02*
X9652Y13716D01*
X4572Y18796D02*
Y22352D01*
X9652Y13716D02*
X13716D01*
X4572Y29464D02*
X20574Y45466D01*
X4572Y22352D02*
Y29464D01*
X30226Y11176D02*
X37919Y18869D01*
X22860Y11176D02*
X30226D01*
X16256D02*
X22860D01*
X13716Y13716D02*
X16256Y11176D01*
D34*
X10414Y31017D02*
D03*
X14570Y7777D02*
D03*
X19812Y8590D02*
D03*
X26098Y17081D02*
D03*
X43688Y8128D02*
D03*
X38862Y8234D02*
D03*
X32294Y21239D02*
D03*
X41025Y39370D02*
D03*
X41402Y44345D02*
D03*
X32702Y40893D02*
D03*
X27686Y41677D02*
D03*
X9533Y41641D02*
D03*
X16673Y37320D02*
D03*
X5051Y41550D02*
D03*
X36830Y14767D02*
D03*
X41075Y24740D02*
D03*
X41350Y20320D02*
D03*
X8823Y25519D02*
D03*
X7941Y10505D02*
D03*
X8128Y5624D02*
D03*
X15331Y17932D02*
D03*
X11430Y18186D02*
D03*
X19304Y34290D02*
D03*
X34099Y25718D02*
D03*
X40132Y34544D02*
D03*
X34544Y8128D02*
D03*
X34798Y13462D02*
D03*
X26289Y14224D02*
D03*
X11176Y24892D02*
D03*
X13970Y21844D02*
D03*
X34544D02*
D03*
X19050Y31496D02*
D03*
X13716Y33528D02*
D03*
X26784Y38100D02*
D03*
X20574Y45466D02*
D03*
X4572Y22352D02*
D03*
X45153Y29718D02*
D03*
X37919Y18869D02*
D03*
X22860Y11176D02*
D03*
X29187Y4862D02*
D03*
M02*
