G04*
G04 #@! TF.GenerationSoftware,Altium Limited,Altium Designer,19.0.10 (269)*
G04*
G04 Layer_Color=16711935*
%FSLAX43Y43*%
%MOMM*%
G71*
G01*
G75*
%ADD27C,1.703*%
%ADD28C,1.727*%
%ADD35C,1.473*%
D27*
X13716Y13716D02*
D03*
Y16256D02*
D03*
Y28956D02*
D03*
Y31496D02*
D03*
X16256D02*
D03*
Y28956D02*
D03*
Y16256D02*
D03*
Y13716D02*
D03*
D28*
X36576Y28956D02*
D03*
X34036D02*
D03*
X36576Y31496D02*
D03*
X34036D02*
D03*
X36576Y36576D02*
D03*
X34036D02*
D03*
D35*
X10414Y31017D02*
D03*
X14570Y7777D02*
D03*
X19812Y8590D02*
D03*
X26098Y17081D02*
D03*
X43688Y8128D02*
D03*
X38862Y8234D02*
D03*
X32294Y21239D02*
D03*
X41025Y39370D02*
D03*
X41402Y44345D02*
D03*
X32702Y40893D02*
D03*
X27686Y41677D02*
D03*
X9533Y41641D02*
D03*
X16673Y37320D02*
D03*
X5051Y41550D02*
D03*
X36830Y14767D02*
D03*
X41075Y24740D02*
D03*
X41350Y20320D02*
D03*
X8823Y25519D02*
D03*
X7941Y10505D02*
D03*
X8128Y5624D02*
D03*
X15331Y17932D02*
D03*
X11430Y18186D02*
D03*
X19304Y34290D02*
D03*
X34099Y25718D02*
D03*
X40132Y34544D02*
D03*
X34544Y8128D02*
D03*
X34798Y13462D02*
D03*
X26289Y14224D02*
D03*
X11176Y24892D02*
D03*
X13970Y21844D02*
D03*
X34544D02*
D03*
X19050Y31496D02*
D03*
X13716Y33528D02*
D03*
X26784Y38100D02*
D03*
X20574Y45466D02*
D03*
X4572Y22352D02*
D03*
X45153Y29718D02*
D03*
X37919Y18869D02*
D03*
X22860Y11176D02*
D03*
X29187Y4862D02*
D03*
M02*
