M48
;Layer_Color=9474304
;FILE_FORMAT=2:5
INCH,LZ
;TYPE=PLATED
T1F00S00C0.01500
T2F00S00C0.03540
T3F00S00C0.03543
%
T01
X0057364Y0030616
X0078Y0033819
X009Y0044
X01035Y0056
X010275Y006725
X0127143Y0083618
X0136Y0086
X013425Y010125
X0161714Y00974
X0162796Y008
X0149287Y0074287
X0145Y005814
X0137Y0053
X0136Y0032
X0153Y0032419
X0172Y0032
X0114909Y0019142
X0060358Y00706
X0055Y0086
X0044Y0098
X0034735Y010047
X0018Y0088
X0045Y00716
X0031265Y0041357
X0032Y0022142
X0041Y0122116
X0037531Y0163942
X0019884Y0163581
X0065643Y0146929
X0076Y0135
X0075Y0124
X0054Y0132
X010545Y015
X0109Y0164081
X012875Y0160997
X0161515Y0155
X0163Y0174586
X0158Y0136
X0177768Y0117
X0081Y0179
T02
X0134Y0114
X0144
Y0124
X0134
Y0144
X0144
T03
X0054Y0054
Y0064
X0064
Y0054
Y0114
X0054
Y0124
X0064
M30
