G04*
G04 #@! TF.GenerationSoftware,Altium Limited,Altium Designer,19.0.10 (269)*
G04*
G04 Layer_Physical_Order=1*
G04 Layer_Color=255*
%FSLAX43Y43*%
%MOMM*%
G71*
G01*
G75*
%ADD11C,0.254*%
%ADD12C,0.127*%
%ADD13R,1.600X0.356*%
%ADD14R,0.762X0.762*%
%ADD15R,2.500X2.000*%
%ADD16R,1.270X0.300*%
%ADD17R,2.000X2.500*%
%ADD18R,0.300X1.270*%
%ADD19R,0.762X0.762*%
%ADD20R,0.356X1.600*%
%ADD30C,1.500*%
%ADD31C,1.524*%
%ADD32C,0.762*%
G36*
X50038Y0D02*
X0D01*
Y50038D01*
X50038D01*
Y0D01*
D02*
G37*
%LPC*%
G36*
X40386Y47625D02*
X39878D01*
Y47117D01*
X40386D01*
Y47625D01*
D02*
G37*
G36*
X39624D02*
X39116D01*
Y47117D01*
X39624D01*
Y47625D01*
D02*
G37*
G36*
X29712Y49429D02*
X27458D01*
Y46675D01*
X29712D01*
Y49429D01*
D02*
G37*
G36*
X21852Y49419D02*
X19598D01*
Y46665D01*
X21852D01*
Y49419D01*
D02*
G37*
G36*
X41656Y47498D02*
X40640D01*
Y46757D01*
X40503Y46620D01*
X40386Y46669D01*
Y46863D01*
X39878D01*
Y46355D01*
X40072D01*
X40121Y46238D01*
X38471Y44587D01*
X38429Y44524D01*
X38414Y44450D01*
Y28694D01*
X38222Y28502D01*
X38105Y28551D01*
Y30226D01*
X38085Y30325D01*
X38029Y30409D01*
X37364Y31075D01*
X37442Y31264D01*
X37473Y31496D01*
X37442Y31728D01*
X37353Y31944D01*
X37210Y32130D01*
X37024Y32273D01*
X36808Y32362D01*
X36576Y32393D01*
X36344Y32362D01*
X36128Y32273D01*
X35942Y32130D01*
X35799Y31944D01*
X35710Y31728D01*
X35679Y31496D01*
X35710Y31264D01*
X35799Y31048D01*
X35942Y30862D01*
X36128Y30719D01*
X36344Y30630D01*
X36576Y30599D01*
X36808Y30630D01*
X36997Y30708D01*
X37587Y30119D01*
Y29060D01*
X37460Y29052D01*
X37442Y29188D01*
X37353Y29404D01*
X37210Y29590D01*
X37024Y29733D01*
X36808Y29822D01*
X36576Y29853D01*
X36344Y29822D01*
X36128Y29733D01*
X35954Y29599D01*
X35189Y30363D01*
X35126Y30405D01*
X35052Y30420D01*
X33100D01*
X29665Y33856D01*
X29602Y33898D01*
X29528Y33913D01*
X27801D01*
X27711Y34003D01*
X27711Y34150D01*
Y34658D01*
X27711D01*
Y34667D01*
X27751Y34794D01*
X28765D01*
X28840Y34809D01*
X28903Y34851D01*
X34808Y40756D01*
X34925Y40707D01*
Y40513D01*
X35433D01*
Y41021D01*
X35239D01*
X35190Y41138D01*
X35327Y41275D01*
X36068D01*
Y42291D01*
X35331D01*
X35306Y42296D01*
X32551D01*
X29706Y45141D01*
X29622Y45197D01*
X29523Y45217D01*
X27185D01*
Y46228D01*
X22131D01*
Y45725D01*
X21012D01*
X20940Y45832D01*
X20772Y45945D01*
X20574Y45984D01*
X20376Y45945D01*
X20208Y45832D01*
X20095Y45664D01*
X20056Y45466D01*
X20095Y45268D01*
X20208Y45100D01*
X20376Y44987D01*
X20574Y44948D01*
X20772Y44987D01*
X20940Y45100D01*
X21012Y45207D01*
X22131D01*
Y44704D01*
X22758D01*
X22807Y44587D01*
X22675Y44455D01*
X4699D01*
X4600Y44435D01*
X4516Y44379D01*
X2428Y42291D01*
X1778D01*
Y41275D01*
X2519D01*
X2656Y41138D01*
X2607Y41021D01*
X2413D01*
Y40513D01*
X2921D01*
Y40707D01*
X3038Y40756D01*
X5578Y38217D01*
X5641Y38175D01*
X5715Y38160D01*
X9572D01*
X12880Y34851D01*
X12943Y34809D01*
X13017Y34794D01*
X18916D01*
X18954Y34667D01*
X18938Y34656D01*
X18825Y34488D01*
X18786Y34290D01*
X18825Y34092D01*
X18938Y33924D01*
X19106Y33811D01*
X19304Y33772D01*
X19502Y33811D01*
X19670Y33924D01*
X19742Y34031D01*
X20422D01*
Y33846D01*
X22530D01*
Y34150D01*
X22403D01*
Y34658D01*
X22403D01*
Y34684D01*
X22403D01*
Y34878D01*
X22520Y34927D01*
X22833Y34614D01*
Y31941D01*
X20042Y29150D01*
X17115D01*
X17110Y29185D01*
X17022Y29398D01*
X16881Y29581D01*
X16698Y29722D01*
X16485Y29810D01*
X16256Y29841D01*
X16027Y29810D01*
X15814Y29722D01*
X15631Y29581D01*
X15490Y29398D01*
X15402Y29185D01*
X15371Y28956D01*
X15402Y28727D01*
X15490Y28514D01*
X15631Y28331D01*
X15814Y28190D01*
X16027Y28102D01*
X16256Y28071D01*
X16485Y28102D01*
X16698Y28190D01*
X16881Y28331D01*
X17022Y28514D01*
X17110Y28727D01*
X17115Y28762D01*
X20122D01*
X20196Y28777D01*
X20259Y28819D01*
X23164Y31724D01*
X23164Y31724D01*
X23206Y31787D01*
X23221Y31861D01*
Y34694D01*
X23206Y34769D01*
X23164Y34832D01*
X22403Y35593D01*
Y35928D01*
X22403D01*
Y35954D01*
X22403D01*
Y36563D01*
X22403D01*
Y36589D01*
X22403D01*
Y37198D01*
X21406D01*
X17054Y41550D01*
Y41925D01*
X17797Y42667D01*
X21638D01*
X21690Y42540D01*
X21441Y42291D01*
X20792D01*
Y41275D01*
X21533D01*
X21670Y41138D01*
X21621Y41021D01*
X21427D01*
Y40513D01*
X21935D01*
Y40707D01*
X22052Y40756D01*
X22920Y39888D01*
Y35896D01*
X22935Y35821D01*
X22977Y35758D01*
X24519Y34216D01*
X24519Y34216D01*
X24582Y34174D01*
X24656Y34159D01*
X24656Y34159D01*
X25767D01*
X25857Y34069D01*
X25857Y33752D01*
X20343Y28237D01*
X18391D01*
X18391Y28237D01*
X18317Y28222D01*
X18254Y28180D01*
X18254Y28180D01*
X16007Y25933D01*
X15761Y25933D01*
X15634Y25933D01*
X15227D01*
X15126Y25933D01*
Y25933D01*
X15100D01*
Y25933D01*
X14765D01*
X11624Y29075D01*
Y32258D01*
X11609Y32332D01*
X11567Y32395D01*
X11567Y32395D01*
X9853Y34110D01*
X9790Y34152D01*
X9716Y34167D01*
X5778D01*
X5730Y34284D01*
X7514Y36068D01*
X8255D01*
Y37084D01*
X7239D01*
Y36343D01*
X5006Y34110D01*
X4964Y34047D01*
X4949Y33972D01*
Y28550D01*
X3810D01*
Y27496D01*
Y26496D01*
Y25496D01*
Y24496D01*
Y23496D01*
X4313D01*
Y22790D01*
X4206Y22718D01*
X4093Y22550D01*
X4054Y22352D01*
X4093Y22154D01*
X4206Y21986D01*
X4374Y21873D01*
X4572Y21834D01*
X4770Y21873D01*
X4938Y21986D01*
X5051Y22154D01*
X5090Y22352D01*
X5051Y22550D01*
X4938Y22718D01*
X4831Y22790D01*
Y23496D01*
X5334D01*
Y24452D01*
X5440Y24503D01*
X5461Y24504D01*
X5648Y24317D01*
Y4953D01*
X5663Y4879D01*
X5705Y4816D01*
X7239Y3281D01*
Y2540D01*
X8255D01*
Y3281D01*
X8392Y3418D01*
X8509Y3369D01*
Y3175D01*
X9017D01*
Y3683D01*
X8823D01*
X8774Y3800D01*
X11223Y6249D01*
X11223Y6249D01*
X11265Y6312D01*
X11280Y6386D01*
X11280Y6386D01*
Y15285D01*
X14765Y18771D01*
X15100Y18771D01*
X15187Y18679D01*
Y18422D01*
X15133Y18411D01*
X14965Y18299D01*
X14852Y18131D01*
X14813Y17932D01*
X14852Y17734D01*
X14965Y17566D01*
X15133Y17454D01*
X15331Y17414D01*
X15529Y17454D01*
X15697Y17566D01*
X15810Y17734D01*
X15849Y17932D01*
X15810Y18131D01*
X15697Y18299D01*
X15575Y18380D01*
Y18541D01*
X15634Y18644D01*
X15939D01*
Y19698D01*
Y20752D01*
X15634D01*
Y20715D01*
X15544Y20625D01*
X15126Y20625D01*
X14999Y20625D01*
X14592D01*
X14491Y20625D01*
Y20625D01*
X14482D01*
X14355Y20664D01*
Y21350D01*
X14400Y21417D01*
X14419Y21516D01*
X14406Y21583D01*
X14449Y21646D01*
X14488Y21844D01*
X14449Y22042D01*
X14336Y22210D01*
X14168Y22323D01*
X13970Y22362D01*
X13772Y22323D01*
X13604Y22210D01*
X13491Y22042D01*
X13452Y21844D01*
X13491Y21646D01*
X13604Y21478D01*
X13772Y21365D01*
X13966Y21327D01*
Y20664D01*
X13856Y20625D01*
X13830D01*
Y20625D01*
X13322D01*
X13221Y20625D01*
Y20625D01*
X13195D01*
Y20625D01*
X12586D01*
Y19892D01*
X10046D01*
X9971Y19877D01*
X9908Y19835D01*
X9551Y19478D01*
X9497Y19441D01*
X7980Y17925D01*
X7514D01*
X6798Y18641D01*
Y25132D01*
X6925Y25185D01*
X7553Y24558D01*
Y22715D01*
X7239D01*
Y21699D01*
X8255D01*
Y22440D01*
X8392Y22577D01*
X8509Y22528D01*
Y22334D01*
X9017D01*
Y22842D01*
X8823D01*
X8774Y22959D01*
X9018Y23203D01*
X14444D01*
X14518Y23218D01*
X14581Y23260D01*
X15400Y24079D01*
X15781Y24079D01*
X15871Y23989D01*
Y22273D01*
X15886Y22199D01*
X15928Y22136D01*
X17195Y20869D01*
X17146Y20752D01*
X16827D01*
Y19698D01*
Y18644D01*
X17208D01*
Y19698D01*
X17336D01*
Y19825D01*
X17767D01*
Y20131D01*
X17885Y20180D01*
X21969Y16096D01*
X21969Y15761D01*
X21969Y15634D01*
Y15227D01*
X21969Y15126D01*
X21969D01*
Y15100D01*
X21969D01*
Y14765D01*
X18827Y11624D01*
X15621D01*
X15547Y11609D01*
X15484Y11567D01*
X12944Y9028D01*
X12827Y9077D01*
Y9271D01*
X12319D01*
Y8763D01*
X12513D01*
X12562Y8646D01*
X12425Y8509D01*
X11684D01*
Y7493D01*
X12334D01*
X15148Y4679D01*
X15232Y4623D01*
X15331Y4603D01*
X22750D01*
Y4100D01*
X27804D01*
Y4603D01*
X28749D01*
X28821Y4496D01*
X28989Y4383D01*
X29187Y4344D01*
X29385Y4383D01*
X29553Y4496D01*
X29666Y4664D01*
X29705Y4862D01*
X29666Y5060D01*
X29553Y5228D01*
X29385Y5341D01*
X29187Y5380D01*
X28989Y5341D01*
X28821Y5228D01*
X28749Y5121D01*
X27804D01*
Y5624D01*
X27895Y5710D01*
X44450D01*
X44549Y5730D01*
X44633Y5786D01*
X46340Y7493D01*
X46990D01*
Y8509D01*
X46249D01*
X46112Y8646D01*
X46161Y8763D01*
X46355D01*
Y9271D01*
X45847D01*
Y9077D01*
X45730Y9028D01*
X42835Y11923D01*
X42772Y11965D01*
X42697Y11980D01*
X31917D01*
X29131Y14765D01*
X29131Y15100D01*
X29229Y15172D01*
X32722D01*
X34305Y13589D01*
X34280Y13462D01*
X34319Y13264D01*
X34432Y13096D01*
X34600Y12983D01*
X34798Y12944D01*
X34996Y12983D01*
X35164Y13096D01*
X35277Y13264D01*
X35316Y13462D01*
X35277Y13660D01*
X35164Y13828D01*
X34996Y13941D01*
X34798Y13980D01*
X34671Y13955D01*
X33013Y15614D01*
X32929Y15670D01*
X32829Y15689D01*
X29258D01*
Y15939D01*
X28204D01*
X27150D01*
Y15634D01*
X27187D01*
X27277Y15544D01*
X27277Y15126D01*
X27277Y14999D01*
Y14491D01*
X27167Y14451D01*
X26748D01*
X26655Y14590D01*
X26487Y14703D01*
X26289Y14742D01*
X26091Y14703D01*
X25923Y14590D01*
X25810Y14422D01*
X25771Y14224D01*
X25810Y14026D01*
X25923Y13858D01*
X26091Y13745D01*
X26289Y13706D01*
X26487Y13745D01*
X26655Y13858D01*
X26706Y13933D01*
X27219D01*
X27277Y13830D01*
Y13322D01*
X27277Y13221D01*
X27277D01*
Y13195D01*
X27277D01*
Y12586D01*
X28010D01*
Y7371D01*
X27408D01*
X27396Y7493D01*
X27396D01*
Y8509D01*
X26387D01*
Y8763D01*
X26761D01*
Y9398D01*
Y10033D01*
X26387D01*
Y12755D01*
X26372Y12830D01*
X26330Y12893D01*
X23823Y15400D01*
X23823Y15735D01*
X23823Y15862D01*
Y16096D01*
X25465Y17738D01*
X25710D01*
X25748Y17611D01*
X25641Y17539D01*
X25500Y17329D01*
X25476Y17208D01*
X26721D01*
X26697Y17329D01*
X26556Y17539D01*
X26449Y17611D01*
X26487Y17738D01*
X27150D01*
Y17462D01*
X28204D01*
X29258D01*
Y17738D01*
X29412D01*
X31032Y16119D01*
X31095Y16077D01*
X31169Y16062D01*
X33020D01*
X33094Y16077D01*
X33157Y16119D01*
X33602Y16563D01*
X33602Y16563D01*
X33644Y16626D01*
X33659Y16701D01*
Y17842D01*
X33769Y17882D01*
X33795D01*
Y17882D01*
X34303D01*
X34404Y17882D01*
Y17882D01*
X34430D01*
Y17882D01*
X34765D01*
X37036Y15611D01*
X37099Y15569D01*
X37173Y15554D01*
X38274D01*
X40121Y13706D01*
X40072Y13589D01*
X39878D01*
Y13081D01*
X40386D01*
Y13275D01*
X40503Y13324D01*
X40640Y13187D01*
Y12446D01*
X41656D01*
Y13096D01*
X45359Y16799D01*
X45415Y16883D01*
X45435Y16982D01*
Y23766D01*
X45938D01*
Y24766D01*
Y25766D01*
Y26766D01*
Y27766D01*
Y28820D01*
X45412D01*
Y29280D01*
X45519Y29352D01*
X45632Y29520D01*
X45671Y29718D01*
X45632Y29916D01*
X45519Y30084D01*
X45351Y30197D01*
X45153Y30236D01*
X44955Y30197D01*
X44787Y30084D01*
X44674Y29916D01*
X44635Y29718D01*
X44674Y29520D01*
X44787Y29352D01*
X44894Y29280D01*
Y28820D01*
X44414D01*
Y28193D01*
X44297Y28144D01*
X44257Y28184D01*
X44221Y28238D01*
X44052Y28406D01*
Y44345D01*
X44032Y44444D01*
X43976Y44528D01*
X41656Y46848D01*
Y47498D01*
D02*
G37*
G36*
X39624Y46863D02*
X39116D01*
Y46355D01*
X39624D01*
Y46863D01*
D02*
G37*
G36*
X36195Y41021D02*
X35687D01*
Y40513D01*
X36195D01*
Y41021D01*
D02*
G37*
G36*
X21173D02*
X20665D01*
Y40513D01*
X21173D01*
Y41021D01*
D02*
G37*
G36*
X2159D02*
X1651D01*
Y40513D01*
X2159D01*
Y41021D01*
D02*
G37*
G36*
X36195Y40259D02*
X35687D01*
Y39751D01*
X36195D01*
Y40259D01*
D02*
G37*
G36*
X35433D02*
X34925D01*
Y39751D01*
X35433D01*
Y40259D01*
D02*
G37*
G36*
X21935Y40259D02*
X21427D01*
Y39751D01*
X21935D01*
Y40259D01*
D02*
G37*
G36*
X21173D02*
X20665D01*
Y39751D01*
X21173D01*
Y40259D01*
D02*
G37*
G36*
X2921D02*
X2413D01*
Y39751D01*
X2921D01*
Y40259D01*
D02*
G37*
G36*
X2159D02*
X1651D01*
Y39751D01*
X2159D01*
Y40259D01*
D02*
G37*
G36*
X34163Y37584D02*
Y36703D01*
X35044D01*
X35026Y36841D01*
X34923Y37088D01*
X34761Y37301D01*
X34548Y37463D01*
X34301Y37566D01*
X34163Y37584D01*
D02*
G37*
G36*
X33909D02*
X33771Y37566D01*
X33524Y37463D01*
X33311Y37301D01*
X33149Y37088D01*
X33046Y36841D01*
X33028Y36703D01*
X33909D01*
Y37584D01*
D02*
G37*
G36*
X9779Y37211D02*
X9271D01*
Y36703D01*
X9779D01*
Y37211D01*
D02*
G37*
G36*
X9017D02*
X8509D01*
Y36703D01*
X9017D01*
Y37211D01*
D02*
G37*
G36*
X9779Y36449D02*
X9271D01*
Y35941D01*
X9779D01*
Y36449D01*
D02*
G37*
G36*
X9017D02*
X8509D01*
Y35941D01*
X9017D01*
Y36449D01*
D02*
G37*
G36*
X36576Y37473D02*
X36344Y37442D01*
X36128Y37353D01*
X35942Y37210D01*
X35799Y37024D01*
X35710Y36808D01*
X35679Y36576D01*
X35710Y36344D01*
X35799Y36128D01*
X35942Y35942D01*
X36128Y35799D01*
X36344Y35710D01*
X36576Y35679D01*
X36808Y35710D01*
X37024Y35799D01*
X37210Y35942D01*
X37353Y36128D01*
X37442Y36344D01*
X37473Y36576D01*
X37442Y36808D01*
X37353Y37024D01*
X37210Y37210D01*
X37024Y37353D01*
X36808Y37442D01*
X36576Y37473D01*
D02*
G37*
G36*
X35044Y36449D02*
X34163D01*
Y35568D01*
X34301Y35586D01*
X34548Y35689D01*
X34761Y35851D01*
X34923Y36064D01*
X35026Y36311D01*
X35044Y36449D01*
D02*
G37*
G36*
X33909D02*
X33028D01*
X33046Y36311D01*
X33149Y36064D01*
X33311Y35851D01*
X33524Y35689D01*
X33771Y35586D01*
X33909Y35568D01*
Y36449D01*
D02*
G37*
G36*
X22530Y33591D02*
X20422D01*
Y33287D01*
Y33210D01*
X22530D01*
Y33287D01*
Y33591D01*
D02*
G37*
G36*
Y32957D02*
X20422D01*
Y32652D01*
Y32576D01*
X22530D01*
Y32652D01*
Y32957D01*
D02*
G37*
G36*
Y32321D02*
X21603D01*
Y32017D01*
X22530D01*
Y32321D01*
D02*
G37*
G36*
X21349D02*
X20422D01*
Y32017D01*
X21349D01*
Y32321D01*
D02*
G37*
G36*
X16256Y32381D02*
X16027Y32350D01*
X15814Y32262D01*
X15631Y32121D01*
X15490Y31938D01*
X15402Y31725D01*
X15371Y31496D01*
X15402Y31267D01*
X15490Y31054D01*
X15631Y30871D01*
X15814Y30730D01*
X16027Y30642D01*
X16256Y30611D01*
X16485Y30642D01*
X16698Y30730D01*
X16881Y30871D01*
X17022Y31054D01*
X17110Y31267D01*
X17115Y31302D01*
X18571D01*
X18571Y31298D01*
X18684Y31130D01*
X18852Y31017D01*
X19050Y30978D01*
X19248Y31017D01*
X19416Y31130D01*
X19529Y31298D01*
X19568Y31496D01*
X19529Y31694D01*
X19416Y31862D01*
X19248Y31975D01*
X19050Y32014D01*
X18852Y31975D01*
X18684Y31862D01*
X18571Y31694D01*
X18571Y31690D01*
X17115D01*
X17110Y31725D01*
X17022Y31938D01*
X16881Y32121D01*
X16698Y32262D01*
X16485Y32350D01*
X16256Y32381D01*
D02*
G37*
G36*
X13716Y34046D02*
X13518Y34007D01*
X13350Y33894D01*
X13237Y33726D01*
X13198Y33528D01*
X13237Y33330D01*
X13350Y33162D01*
X13518Y33049D01*
X13522Y33049D01*
Y32355D01*
X13487Y32350D01*
X13274Y32262D01*
X13091Y32121D01*
X12950Y31938D01*
X12862Y31725D01*
X12831Y31496D01*
X12862Y31267D01*
X12950Y31054D01*
X13091Y30871D01*
X13274Y30730D01*
X13487Y30642D01*
X13716Y30611D01*
X13945Y30642D01*
X14158Y30730D01*
X14341Y30871D01*
X14482Y31054D01*
X14570Y31267D01*
X14601Y31496D01*
X14570Y31725D01*
X14482Y31938D01*
X14341Y32121D01*
X14158Y32262D01*
X13945Y32350D01*
X13910Y32355D01*
Y33049D01*
X13914Y33049D01*
X14082Y33162D01*
X14195Y33330D01*
X14234Y33528D01*
X14195Y33726D01*
X14082Y33894D01*
X13914Y34007D01*
X13716Y34046D01*
D02*
G37*
G36*
X34036Y32393D02*
X33804Y32362D01*
X33588Y32273D01*
X33402Y32130D01*
X33259Y31944D01*
X33170Y31728D01*
X33139Y31496D01*
X33170Y31264D01*
X33259Y31048D01*
X33402Y30862D01*
X33588Y30719D01*
X33804Y30630D01*
X34036Y30599D01*
X34268Y30630D01*
X34484Y30719D01*
X34670Y30862D01*
X34813Y31048D01*
X34902Y31264D01*
X34933Y31496D01*
X34902Y31728D01*
X34813Y31944D01*
X34670Y32130D01*
X34484Y32273D01*
X34268Y32362D01*
X34036Y32393D01*
D02*
G37*
G36*
X49129Y31353D02*
X46375D01*
Y29099D01*
X49129D01*
Y31353D01*
D02*
G37*
G36*
X3363Y31077D02*
X609D01*
Y28823D01*
X3363D01*
Y31077D01*
D02*
G37*
G36*
X13716Y29841D02*
X13487Y29810D01*
X13274Y29722D01*
X13091Y29581D01*
X12950Y29398D01*
X12862Y29185D01*
X12831Y28956D01*
X12862Y28727D01*
X12950Y28514D01*
X13091Y28331D01*
X13274Y28190D01*
X13487Y28102D01*
X13716Y28071D01*
X13945Y28102D01*
X14158Y28190D01*
X14341Y28331D01*
X14482Y28514D01*
X14570Y28727D01*
X14601Y28956D01*
X14570Y29185D01*
X14482Y29398D01*
X14341Y29581D01*
X14158Y29722D01*
X13945Y29810D01*
X13716Y29841D01*
D02*
G37*
G36*
X9779Y22842D02*
X9271D01*
Y22334D01*
X9779D01*
Y22842D01*
D02*
G37*
G36*
Y22080D02*
X9271D01*
Y21572D01*
X9779D01*
Y22080D01*
D02*
G37*
G36*
X9017D02*
X8509D01*
Y21572D01*
X9017D01*
Y22080D01*
D02*
G37*
G36*
X49139Y23493D02*
X46385D01*
Y21239D01*
X49139D01*
Y23493D01*
D02*
G37*
G36*
X3373Y23217D02*
X619D01*
Y20963D01*
X3373D01*
Y23217D01*
D02*
G37*
G36*
X17767Y19571D02*
X17462D01*
Y18644D01*
X17767D01*
Y19571D01*
D02*
G37*
G36*
X16573Y20752D02*
X16192D01*
Y19698D01*
Y18644D01*
X16573D01*
Y19698D01*
Y20752D01*
D02*
G37*
G36*
X29258Y17208D02*
X28204D01*
X27150D01*
Y16904D01*
Y16827D01*
X28204D01*
X29258D01*
Y16904D01*
Y17208D01*
D02*
G37*
G36*
X26721Y16955D02*
X26226D01*
Y16459D01*
X26346Y16483D01*
X26556Y16624D01*
X26697Y16834D01*
X26721Y16955D01*
D02*
G37*
G36*
X25972D02*
X25476D01*
X25500Y16834D01*
X25641Y16624D01*
X25851Y16483D01*
X25972Y16459D01*
Y16955D01*
D02*
G37*
G36*
X16383Y17252D02*
Y16383D01*
X17252D01*
X17234Y16518D01*
X17133Y16762D01*
X16972Y16972D01*
X16762Y17133D01*
X16518Y17234D01*
X16383Y17252D01*
D02*
G37*
G36*
X16129D02*
X15994Y17234D01*
X15750Y17133D01*
X15540Y16972D01*
X15379Y16762D01*
X15278Y16518D01*
X15260Y16383D01*
X16129D01*
Y17252D01*
D02*
G37*
G36*
X29258Y16573D02*
X28204D01*
X27150D01*
Y16269D01*
Y16192D01*
X28204D01*
X29258D01*
Y16573D01*
D02*
G37*
G36*
X13716Y17141D02*
X13487Y17110D01*
X13274Y17022D01*
X13091Y16881D01*
X12950Y16698D01*
X12862Y16485D01*
X12831Y16256D01*
X12862Y16027D01*
X12950Y15814D01*
X13091Y15631D01*
X13274Y15490D01*
X13487Y15402D01*
X13716Y15371D01*
X13945Y15402D01*
X14158Y15490D01*
X14341Y15631D01*
X14482Y15814D01*
X14570Y16027D01*
X14601Y16256D01*
X14570Y16485D01*
X14482Y16698D01*
X14341Y16881D01*
X14158Y17022D01*
X13945Y17110D01*
X13716Y17141D01*
D02*
G37*
G36*
X17252Y16129D02*
X16383D01*
Y15260D01*
X16518Y15278D01*
X16762Y15379D01*
X16972Y15540D01*
X17133Y15750D01*
X17234Y15994D01*
X17252Y16129D01*
D02*
G37*
G36*
X16129D02*
X15260D01*
X15278Y15994D01*
X15379Y15750D01*
X15540Y15540D01*
X15750Y15379D01*
X15994Y15278D01*
X16129Y15260D01*
Y16129D01*
D02*
G37*
G36*
X36957Y15390D02*
Y14894D01*
X37452D01*
X37428Y15015D01*
X37288Y15225D01*
X37078Y15366D01*
X36957Y15390D01*
D02*
G37*
G36*
X36703D02*
X36582Y15366D01*
X36372Y15225D01*
X36232Y15015D01*
X36208Y14894D01*
X36703D01*
Y15390D01*
D02*
G37*
G36*
X37452Y14640D02*
X36957D01*
Y14145D01*
X37078Y14169D01*
X37288Y14310D01*
X37428Y14520D01*
X37452Y14640D01*
D02*
G37*
G36*
X36703D02*
X36208D01*
X36232Y14520D01*
X36372Y14310D01*
X36582Y14169D01*
X36703Y14145D01*
Y14640D01*
D02*
G37*
G36*
X39624Y13589D02*
X39116D01*
Y13081D01*
X39624D01*
Y13589D01*
D02*
G37*
G36*
X16256Y14601D02*
X16027Y14570D01*
X15814Y14482D01*
X15631Y14341D01*
X15490Y14158D01*
X15402Y13945D01*
X15371Y13716D01*
X15402Y13487D01*
X15490Y13274D01*
X15631Y13091D01*
X15814Y12950D01*
X16027Y12862D01*
X16256Y12831D01*
X16485Y12862D01*
X16698Y12950D01*
X16881Y13091D01*
X17022Y13274D01*
X17110Y13487D01*
X17141Y13716D01*
X17110Y13945D01*
X17022Y14158D01*
X16881Y14341D01*
X16698Y14482D01*
X16485Y14570D01*
X16256Y14601D01*
D02*
G37*
G36*
X13716D02*
X13487Y14570D01*
X13274Y14482D01*
X13091Y14341D01*
X12950Y14158D01*
X12862Y13945D01*
X12831Y13716D01*
X12862Y13487D01*
X12950Y13274D01*
X13091Y13091D01*
X13274Y12950D01*
X13487Y12862D01*
X13716Y12831D01*
X13945Y12862D01*
X14158Y12950D01*
X14341Y13091D01*
X14482Y13274D01*
X14570Y13487D01*
X14601Y13716D01*
X14570Y13945D01*
X14482Y14158D01*
X14341Y14341D01*
X14158Y14482D01*
X13945Y14570D01*
X13716Y14601D01*
D02*
G37*
G36*
X40386Y12827D02*
X39878D01*
Y12319D01*
X40386D01*
Y12827D01*
D02*
G37*
G36*
X39624D02*
X39116D01*
Y12319D01*
X39624D01*
Y12827D01*
D02*
G37*
G36*
X27523Y10033D02*
X27015D01*
Y9525D01*
X27523D01*
Y10033D01*
D02*
G37*
G36*
X12827D02*
X12319D01*
Y9525D01*
X12827D01*
Y10033D01*
D02*
G37*
G36*
X12065D02*
X11557D01*
Y9525D01*
X12065D01*
Y10033D01*
D02*
G37*
G36*
X47117D02*
X46609D01*
Y9525D01*
X47117D01*
Y10033D01*
D02*
G37*
G36*
X46355D02*
X45847D01*
Y9525D01*
X46355D01*
Y10033D01*
D02*
G37*
G36*
X47117Y9271D02*
X46609D01*
Y8763D01*
X47117D01*
Y9271D01*
D02*
G37*
G36*
X27523Y9271D02*
X27015D01*
Y8763D01*
X27523D01*
Y9271D01*
D02*
G37*
G36*
X12065Y9271D02*
X11557D01*
Y8763D01*
X12065D01*
Y9271D01*
D02*
G37*
G36*
X9779Y3683D02*
X9271D01*
Y3175D01*
X9779D01*
Y3683D01*
D02*
G37*
G36*
Y2921D02*
X9271D01*
Y2413D01*
X9779D01*
Y2921D01*
D02*
G37*
G36*
X9017D02*
X8509D01*
Y2413D01*
X9017D01*
Y2921D01*
D02*
G37*
G36*
X30337Y3663D02*
X28083D01*
Y909D01*
X30337D01*
Y3663D01*
D02*
G37*
G36*
X22477Y3653D02*
X20223D01*
Y899D01*
X22477D01*
Y3653D01*
D02*
G37*
%LPD*%
G36*
X32261Y41854D02*
X32345Y41798D01*
X32444Y41778D01*
X35052D01*
Y41550D01*
X28685Y35183D01*
X27751D01*
X27711Y35293D01*
Y35319D01*
X27711D01*
Y35654D01*
X29584Y37526D01*
X29626Y37589D01*
X29641Y37664D01*
Y41524D01*
X30299D01*
Y41275D01*
X31315D01*
Y42291D01*
X30299D01*
Y42042D01*
X29554D01*
X27024Y44572D01*
X27077Y44699D01*
X29416D01*
X32261Y41854D01*
D02*
G37*
G36*
X29253Y41611D02*
Y37744D01*
X27829Y36320D01*
X27711Y36369D01*
X27711Y36563D01*
X27711D01*
Y36589D01*
X27711D01*
Y37198D01*
X27043D01*
Y37662D01*
X27151Y37734D01*
X27263Y37902D01*
X27302Y38100D01*
X27263Y38298D01*
X27151Y38466D01*
X26983Y38579D01*
X26784Y38618D01*
X26586Y38579D01*
X26418Y38466D01*
X26306Y38298D01*
X26266Y38100D01*
X26306Y37902D01*
X26418Y37734D01*
X26525Y37662D01*
Y37198D01*
X25857D01*
Y37004D01*
X25740Y36955D01*
X24324Y38371D01*
Y39779D01*
X25301Y40756D01*
X25418Y40707D01*
Y40513D01*
X25926D01*
Y41021D01*
X25732D01*
X25683Y41138D01*
X25820Y41275D01*
X26561D01*
Y42291D01*
X26167D01*
Y44517D01*
X26294Y44570D01*
X29253Y41611D01*
D02*
G37*
G36*
X13015Y43371D02*
X11935Y42291D01*
X11285D01*
Y41275D01*
X11935D01*
X12071Y41138D01*
X12023Y41021D01*
X11920D01*
Y40513D01*
X12428D01*
Y40616D01*
X12545Y40664D01*
X16073Y37137D01*
X16157Y37081D01*
X16232Y37066D01*
X16307Y36954D01*
X16475Y36841D01*
X16673Y36802D01*
X16872Y36841D01*
X17040Y36954D01*
X17152Y37122D01*
X17191Y37320D01*
X17152Y37518D01*
X17040Y37686D01*
X16872Y37798D01*
X16673Y37838D01*
X16475Y37798D01*
X16307Y37686D01*
X16261Y37682D01*
X12301Y41641D01*
Y41925D01*
X13484Y43108D01*
X17339D01*
X17387Y42990D01*
X16688Y42291D01*
X16038D01*
Y41275D01*
X16780D01*
X16916Y41138D01*
X16868Y41021D01*
X16673D01*
Y40513D01*
X17181D01*
Y40707D01*
X17299Y40756D01*
X20739Y37316D01*
X20690Y37198D01*
X20549D01*
Y36589D01*
X20549D01*
Y36580D01*
X20509Y36453D01*
X12844D01*
X7547Y41749D01*
Y41925D01*
X9111Y43489D01*
X12966D01*
X13015Y43371D01*
D02*
G37*
G36*
X8700Y43810D02*
X7181Y42291D01*
X6531D01*
Y41275D01*
X7472D01*
X7599Y41148D01*
X7547Y41021D01*
X7166D01*
Y40513D01*
X7674D01*
Y40893D01*
X7801Y40946D01*
X12626Y36121D01*
X12626Y36121D01*
X12689Y36079D01*
X12764Y36064D01*
X12764Y36064D01*
X20509D01*
X20549Y35954D01*
Y35928D01*
X20549D01*
Y35420D01*
X20549Y35319D01*
X20549D01*
Y35310D01*
X20509Y35183D01*
X13098D01*
X9789Y38491D01*
X9726Y38533D01*
X9652Y38548D01*
X5795D01*
X2794Y41550D01*
Y41925D01*
X4806Y43937D01*
X8648D01*
X8700Y43810D01*
D02*
G37*
G36*
X25649Y43494D02*
Y42291D01*
X25545D01*
Y41550D01*
X24047Y40052D01*
X23993Y40015D01*
X23951Y39952D01*
X23936Y39878D01*
Y38291D01*
X23951Y38216D01*
X23993Y38153D01*
X25857Y36289D01*
Y35954D01*
X25857Y35954D01*
Y35928D01*
X25857D01*
X25857Y35827D01*
Y35319D01*
X25857D01*
Y35293D01*
X25857D01*
Y34684D01*
X25857D01*
Y34675D01*
X25818Y34548D01*
X24737D01*
X23308Y35976D01*
Y39969D01*
X23308Y39969D01*
X23293Y40043D01*
X23251Y40106D01*
X21808Y41550D01*
Y41925D01*
X22042Y42159D01*
X24027D01*
X24126Y42179D01*
X24210Y42235D01*
X25522Y43547D01*
X25649Y43494D01*
D02*
G37*
G36*
X11236Y32178D02*
Y29008D01*
X11204Y28982D01*
X11115Y28948D01*
X9533Y30531D01*
X9470Y30573D01*
X9396Y30588D01*
X7941D01*
Y31278D01*
X8255D01*
Y32294D01*
X7239D01*
Y31278D01*
X7553D01*
Y30474D01*
X5465Y28386D01*
X5338Y28439D01*
Y33778D01*
X9635D01*
X11236Y32178D01*
D02*
G37*
G36*
X41402Y41615D02*
X41458D01*
X42823Y40249D01*
Y28553D01*
X42696Y28485D01*
X42677Y28498D01*
Y35995D01*
X42657Y36095D01*
X42601Y36179D01*
X41656Y37124D01*
Y37773D01*
X40640D01*
Y36757D01*
X40889D01*
Y35731D01*
X40206Y35047D01*
X40132Y35062D01*
X39934Y35023D01*
X39766Y34910D01*
X39653Y34742D01*
X39614Y34544D01*
X39653Y34346D01*
X39766Y34178D01*
X39934Y34065D01*
X40132Y34026D01*
X40330Y34065D01*
X40498Y34178D01*
X40611Y34346D01*
X40650Y34544D01*
X40614Y34723D01*
X41331Y35440D01*
X41387Y35524D01*
X41407Y35624D01*
Y36474D01*
X41524Y36523D01*
X42159Y35888D01*
Y28477D01*
X42042Y28429D01*
X41407Y29063D01*
Y29972D01*
Y31891D01*
X41427Y31895D01*
X41656D01*
Y32124D01*
X41661Y32149D01*
X41656Y32174D01*
Y32911D01*
X40640D01*
Y31895D01*
X40889D01*
Y30091D01*
X39183Y28385D01*
X39056Y28438D01*
Y31666D01*
X39116Y31768D01*
X39183Y31768D01*
X39624D01*
Y32403D01*
Y33038D01*
X39183D01*
X39116Y33038D01*
X39056Y33140D01*
Y36528D01*
X39116Y36630D01*
X39183Y36630D01*
X39624D01*
Y37265D01*
Y37900D01*
X39183D01*
X39116Y37900D01*
X39056Y38003D01*
Y39761D01*
X40915Y41620D01*
X41377D01*
X41402Y41615D01*
D02*
G37*
G36*
X43534Y44238D02*
Y28359D01*
X43473Y28322D01*
X43422Y28301D01*
X43341Y28375D01*
Y40357D01*
X43322Y40456D01*
X43266Y40540D01*
X41748Y42057D01*
X41664Y42113D01*
X41656Y42115D01*
Y42636D01*
X40640D01*
Y41894D01*
X40503Y41758D01*
X40386Y41806D01*
Y42001D01*
X39878D01*
Y41493D01*
X40072D01*
X40121Y41375D01*
X38920Y40174D01*
X38802Y40223D01*
Y44370D01*
X40915Y46482D01*
X41290D01*
X43534Y44238D01*
D02*
G37*
G36*
X11157Y28358D02*
X11123Y28269D01*
X11098Y28237D01*
X8793D01*
X8719Y28222D01*
X8656Y28180D01*
X7980Y27505D01*
X7239D01*
Y27467D01*
X5334D01*
Y27706D01*
X7827Y30199D01*
X9315D01*
X11157Y28358D01*
D02*
G37*
G36*
X33244Y29368D02*
X33170Y29188D01*
X33139Y28956D01*
X33170Y28724D01*
X33259Y28508D01*
X33402Y28322D01*
X33588Y28179D01*
X33804Y28090D01*
X34036Y28059D01*
X34268Y28090D01*
X34484Y28179D01*
X34670Y28322D01*
X34813Y28508D01*
X34902Y28724D01*
X34933Y28956D01*
X34902Y29188D01*
X34813Y29404D01*
X34670Y29590D01*
X34484Y29733D01*
X34268Y29822D01*
X34036Y29853D01*
X33804Y29822D01*
X33588Y29733D01*
X33498Y29664D01*
X33247Y29914D01*
X33296Y30032D01*
X34972D01*
X35741Y29263D01*
X35710Y29188D01*
X35679Y28956D01*
X35710Y28724D01*
X35799Y28508D01*
X35942Y28322D01*
X36128Y28179D01*
X36344Y28090D01*
X36576Y28059D01*
X36808Y28090D01*
X37024Y28179D01*
X37210Y28322D01*
X37353Y28508D01*
X37442Y28724D01*
X37460Y28860D01*
X37587Y28852D01*
Y28455D01*
X36434Y27302D01*
X32206D01*
X27481Y32026D01*
X27530Y32144D01*
X27711D01*
Y32753D01*
X27711D01*
Y32762D01*
X27751Y32889D01*
X29723D01*
X33244Y29368D01*
D02*
G37*
G36*
X12829Y26051D02*
X12780Y25933D01*
X12586D01*
Y25151D01*
X11614D01*
X11542Y25258D01*
X11374Y25371D01*
X11176Y25410D01*
X10978Y25371D01*
X10810Y25258D01*
X10697Y25090D01*
X10658Y24892D01*
X10697Y24694D01*
X10810Y24526D01*
X10978Y24413D01*
X11176Y24374D01*
X11374Y24413D01*
X11542Y24526D01*
X11614Y24633D01*
X12586D01*
Y24079D01*
X13195D01*
X13195Y24079D01*
X13221D01*
Y24079D01*
X13322Y24079D01*
X13830D01*
X13830Y24079D01*
X13856D01*
Y24079D01*
X13957Y24079D01*
X14465D01*
X14465Y24079D01*
X14491D01*
Y24079D01*
X14685Y24079D01*
X14734Y23962D01*
X14363Y23591D01*
X8937D01*
X8937Y23591D01*
X8863Y23576D01*
X8800Y23534D01*
X8068Y22803D01*
X7941Y22855D01*
Y24638D01*
X7926Y24712D01*
X7884Y24775D01*
X7884Y24775D01*
X5749Y26910D01*
X5686Y26952D01*
X5702Y27079D01*
X7239D01*
Y26489D01*
X8255D01*
Y27230D01*
X8392Y27367D01*
X8509Y27318D01*
Y27124D01*
X9017D01*
Y27632D01*
X8823D01*
X8774Y27749D01*
X8874Y27849D01*
X11031D01*
X12829Y26051D01*
D02*
G37*
G36*
X40889Y29375D02*
Y28956D01*
X40909Y28857D01*
X40965Y28773D01*
X41562Y28176D01*
X41509Y28049D01*
X40640D01*
Y27242D01*
X40636Y27223D01*
Y26242D01*
X34130Y19736D01*
X33795D01*
Y19736D01*
X33769D01*
Y19736D01*
X33160D01*
Y19736D01*
X33134D01*
Y19736D01*
X32525D01*
Y19736D01*
X32499D01*
Y19736D01*
X31890D01*
Y19554D01*
X31772Y19506D01*
X30347Y20931D01*
Y24926D01*
X32206Y26784D01*
X36338D01*
X36387Y26667D01*
X34765Y25044D01*
X34430Y25044D01*
X34358Y25142D01*
Y25280D01*
X34466Y25351D01*
X34578Y25519D01*
X34617Y25718D01*
X34578Y25916D01*
X34466Y26084D01*
X34298Y26196D01*
X34099Y26235D01*
X33901Y26196D01*
X33733Y26084D01*
X33621Y25916D01*
X33582Y25718D01*
X33621Y25519D01*
X33733Y25351D01*
X33812Y25298D01*
X33783Y25171D01*
X33591D01*
Y24117D01*
Y23063D01*
X33896D01*
Y23100D01*
X33986Y23190D01*
X34404Y23190D01*
X34531Y23190D01*
X35039D01*
X35111Y23093D01*
Y22777D01*
X34671Y22337D01*
X34544Y22362D01*
X34346Y22323D01*
X34178Y22210D01*
X34065Y22042D01*
X34026Y21844D01*
X34065Y21646D01*
X34178Y21478D01*
X34346Y21365D01*
X34544Y21326D01*
X34742Y21365D01*
X34910Y21478D01*
X35023Y21646D01*
X35062Y21844D01*
X35037Y21971D01*
X35553Y22486D01*
X35609Y22570D01*
X35628Y22670D01*
Y23093D01*
X35700Y23190D01*
X36309D01*
Y23190D01*
X36335D01*
Y23190D01*
X36944D01*
Y25044D01*
X36834D01*
Y25486D01*
X38999Y27651D01*
X39116Y27602D01*
Y26906D01*
X39624D01*
Y27541D01*
X39751D01*
Y27668D01*
X40386D01*
Y28176D01*
X39689D01*
X39641Y28293D01*
X40772Y29424D01*
X40889Y29375D01*
D02*
G37*
G36*
X25857Y32338D02*
Y32144D01*
X26814D01*
X31915Y27043D01*
X30073Y25201D01*
X17640D01*
Y25933D01*
X17446D01*
X17397Y26051D01*
X18838Y27492D01*
X20764D01*
X20839Y27507D01*
X20902Y27549D01*
X25740Y32387D01*
X25857Y32338D01*
D02*
G37*
G36*
X22701Y17640D02*
X21969D01*
Y17456D01*
X21851Y17407D01*
X16895Y22364D01*
Y24040D01*
X17005Y24079D01*
X17031D01*
Y24079D01*
X17640D01*
Y24812D01*
X22701D01*
Y17640D01*
D02*
G37*
G36*
X42963Y25360D02*
X43047Y25304D01*
X43146Y25284D01*
X43208D01*
X43260Y25157D01*
X41290Y23187D01*
X40640D01*
Y22445D01*
X40503Y22309D01*
X40386Y22357D01*
Y22552D01*
X39878D01*
Y22044D01*
X40072D01*
X40121Y21926D01*
X39725Y21530D01*
X37910D01*
X37835Y21515D01*
X37772Y21473D01*
X36035Y19736D01*
X35700D01*
X35700Y19736D01*
X35674D01*
Y19736D01*
X35573Y19736D01*
X35065D01*
X35065Y19736D01*
X35039D01*
Y19736D01*
X34845Y19736D01*
X34796Y19853D01*
X40968Y26025D01*
X41010Y26088D01*
X41025Y26162D01*
Y27033D01*
X41290D01*
X42963Y25360D01*
D02*
G37*
G36*
X14099Y18653D02*
X10948Y15503D01*
X10906Y15440D01*
X10891Y15365D01*
Y6467D01*
X7980Y3556D01*
X7514D01*
X6036Y5033D01*
Y9108D01*
X6154Y9156D01*
X7239Y8071D01*
Y7330D01*
X8255D01*
Y8071D01*
X8392Y8208D01*
X8509Y8159D01*
Y7965D01*
X9017D01*
Y8473D01*
X8823D01*
X8774Y8590D01*
X10551Y10367D01*
X10593Y10430D01*
X10608Y10505D01*
Y15883D01*
X13495Y18771D01*
X13830D01*
Y18771D01*
X13856D01*
Y18771D01*
X14050D01*
X14099Y18653D01*
D02*
G37*
G36*
X44125Y24657D02*
X42899Y23432D01*
X42843Y23348D01*
X42823Y23249D01*
Y19858D01*
X41290Y18324D01*
X40640D01*
Y17583D01*
X40503Y17446D01*
X40386Y17495D01*
Y17689D01*
X39878D01*
Y17181D01*
X40072D01*
X40121Y17064D01*
X39779Y16722D01*
X37108D01*
X36066Y17764D01*
X36115Y17882D01*
X36309Y17882D01*
Y17882D01*
X36335D01*
Y17882D01*
X36944D01*
Y18550D01*
X37521D01*
X37553Y18503D01*
X37721Y18390D01*
X37919Y18351D01*
X38117Y18390D01*
X38285Y18503D01*
X38398Y18671D01*
X38437Y18869D01*
X38398Y19067D01*
X38285Y19235D01*
X38117Y19348D01*
X37919Y19387D01*
X37721Y19348D01*
X37553Y19235D01*
X37441Y19068D01*
X36944D01*
Y19736D01*
X36750D01*
X36701Y19853D01*
X37990Y21142D01*
X39805D01*
X39880Y21157D01*
X39943Y21199D01*
X40915Y22171D01*
X41656D01*
Y22820D01*
X43620Y24784D01*
X44072D01*
X44125Y24657D01*
D02*
G37*
G36*
X12586Y18771D02*
X12780D01*
X12829Y18653D01*
X10277Y16101D01*
X10235Y16038D01*
X10220Y15964D01*
Y10585D01*
X7980Y8346D01*
X7514D01*
X6290Y9569D01*
Y13644D01*
X6408Y13692D01*
X7239Y12861D01*
Y12119D01*
X8255D01*
Y13135D01*
X7941D01*
Y14423D01*
X11228Y17710D01*
X11232Y17708D01*
X11430Y17668D01*
X11628Y17708D01*
X11796Y17820D01*
X11909Y17988D01*
X11948Y18186D01*
X11909Y18385D01*
X11796Y18553D01*
X11628Y18665D01*
X11430Y18704D01*
X11232Y18665D01*
X11064Y18553D01*
X10951Y18385D01*
X10912Y18186D01*
X10951Y17988D01*
X10954Y17985D01*
X9896Y16927D01*
X9779Y16976D01*
Y17290D01*
X9271D01*
Y16782D01*
X9585D01*
X9634Y16665D01*
X7610Y14641D01*
X7568Y14578D01*
X7553Y14503D01*
Y13276D01*
X7426Y13223D01*
X6544Y14105D01*
Y18179D01*
X6662Y18228D01*
X7239Y17650D01*
Y16909D01*
X8255D01*
Y17650D01*
X8392Y17787D01*
X8509Y17739D01*
Y17544D01*
X9017D01*
Y18052D01*
X8823D01*
X8774Y18169D01*
X9735Y19130D01*
X9789Y19167D01*
X10126Y19503D01*
X12586D01*
Y18771D01*
D02*
G37*
G36*
X29959Y20850D02*
X29974Y20776D01*
X30016Y20713D01*
X31890Y18839D01*
Y17882D01*
X32499D01*
Y17882D01*
X32508D01*
X32635Y17842D01*
Y17162D01*
X32178Y16704D01*
X31355D01*
X29735Y18324D01*
X29672Y18366D01*
X29598Y18381D01*
X25004D01*
X24930Y18366D01*
X24867Y18324D01*
X23940Y17397D01*
X23823Y17446D01*
Y17640D01*
X23090D01*
Y24812D01*
X29959D01*
Y20850D01*
D02*
G37*
G36*
X44414Y24048D02*
Y23766D01*
X44917D01*
Y17089D01*
X41290Y13462D01*
X40915D01*
X38491Y15885D01*
X38428Y15927D01*
X38354Y15942D01*
X37253D01*
X36982Y16214D01*
X37016Y16302D01*
X37041Y16334D01*
X39860D01*
X39934Y16349D01*
X39997Y16391D01*
X40915Y17308D01*
X41656D01*
Y17958D01*
X43266Y19568D01*
X43322Y19652D01*
X43341Y19751D01*
Y23141D01*
X44297Y24097D01*
X44414Y24048D01*
D02*
G37*
G36*
X18920Y11204D02*
X18954Y11115D01*
X18913Y11074D01*
X18871Y11011D01*
X18856Y10937D01*
Y10041D01*
X17843Y9028D01*
X17726Y9077D01*
Y9271D01*
X17218D01*
Y8763D01*
X17412D01*
X17461Y8646D01*
X17324Y8509D01*
X16583D01*
Y7493D01*
X17232D01*
X18276Y6450D01*
X18360Y6394D01*
X18459Y6374D01*
X22665D01*
X23268Y5771D01*
Y5624D01*
X22750D01*
Y5121D01*
X15438D01*
X12700Y7859D01*
Y8234D01*
X15701Y11236D01*
X18894D01*
X18920Y11204D01*
D02*
G37*
G36*
X21969Y13415D02*
X21969Y13221D01*
X21969D01*
Y13195D01*
X21969D01*
Y12586D01*
X22666D01*
Y11655D01*
X22662Y11655D01*
X22494Y11542D01*
X22381Y11374D01*
X22342Y11176D01*
X22381Y10978D01*
X22494Y10810D01*
X22662Y10697D01*
X22860Y10658D01*
X23058Y10697D01*
X23226Y10810D01*
X23339Y10978D01*
X23378Y11176D01*
X23339Y11374D01*
X23226Y11542D01*
X23058Y11655D01*
X23054Y11655D01*
Y12586D01*
X23823D01*
X23833Y12463D01*
Y6690D01*
X23715Y6641D01*
X22497Y7859D01*
Y8509D01*
X21481D01*
Y7493D01*
X22131D01*
X22615Y7009D01*
X22566Y6892D01*
X18566D01*
X17599Y7859D01*
Y8234D01*
X19187Y9823D01*
X19187Y9823D01*
X19229Y9886D01*
X19244Y9960D01*
Y10857D01*
X21851Y13464D01*
X21969Y13415D01*
D02*
G37*
G36*
X31278Y10800D02*
X31341Y10758D01*
X31415Y10743D01*
X38567D01*
X41075Y8234D01*
Y7859D01*
X39825Y6609D01*
X35825D01*
X35776Y6726D01*
X36543Y7493D01*
X37193D01*
Y8509D01*
X36177D01*
Y8387D01*
X34982D01*
X34910Y8494D01*
X34742Y8607D01*
X34544Y8646D01*
X34346Y8607D01*
X34178Y8494D01*
X34065Y8326D01*
X34026Y8128D01*
X34065Y7930D01*
X34178Y7762D01*
X34346Y7649D01*
X34544Y7610D01*
X34742Y7649D01*
X34910Y7762D01*
X34982Y7869D01*
X36007D01*
X36060Y7742D01*
X35308Y6990D01*
X31307D01*
X31259Y7107D01*
X31645Y7493D01*
X32294D01*
Y8509D01*
X31278D01*
Y7859D01*
X30790Y7371D01*
X28399D01*
Y12586D01*
X29131D01*
Y12780D01*
X29249Y12829D01*
X31278Y10800D01*
D02*
G37*
G36*
X25999Y12675D02*
Y8173D01*
X24367Y6541D01*
X24348Y6513D01*
X24221Y6552D01*
Y13017D01*
X24206Y13091D01*
X24164Y13154D01*
X23823Y13495D01*
Y13830D01*
X23823Y13830D01*
Y13856D01*
X23823D01*
X23823Y13957D01*
Y14465D01*
X23823Y14465D01*
Y14491D01*
X23823D01*
X23823Y14685D01*
X23940Y14734D01*
X25999Y12675D01*
D02*
G37*
G36*
X31699Y11648D02*
X31762Y11606D01*
X31837Y11591D01*
X42617D01*
X45974Y8234D01*
Y7859D01*
X44343Y6228D01*
X40343D01*
X40294Y6345D01*
X41442Y7493D01*
X42091D01*
Y8509D01*
X41350D01*
X41213Y8646D01*
X41262Y8763D01*
X41456D01*
Y9271D01*
X40948D01*
Y9077D01*
X40831Y9028D01*
X38785Y11074D01*
X38722Y11117D01*
X38647Y11131D01*
X31495D01*
X29131Y13495D01*
Y13830D01*
X29131D01*
Y13856D01*
X29131D01*
Y14050D01*
X29249Y14099D01*
X31699Y11648D01*
D02*
G37*
%LPC*%
G36*
X32829Y41515D02*
Y41020D01*
X33325D01*
X33301Y41141D01*
X33160Y41351D01*
X32950Y41491D01*
X32829Y41515D01*
D02*
G37*
G36*
X32576D02*
X32455Y41491D01*
X32245Y41351D01*
X32104Y41141D01*
X32080Y41020D01*
X32576D01*
Y41515D01*
D02*
G37*
G36*
X31442Y41021D02*
X30934D01*
Y40513D01*
X31442D01*
Y41021D01*
D02*
G37*
G36*
X30680D02*
X30172D01*
Y40513D01*
X30680D01*
Y41021D01*
D02*
G37*
G36*
X33325Y40766D02*
X32829D01*
Y40271D01*
X32950Y40295D01*
X33160Y40435D01*
X33301Y40646D01*
X33325Y40766D01*
D02*
G37*
G36*
X32576D02*
X32080D01*
X32104Y40646D01*
X32245Y40435D01*
X32455Y40295D01*
X32576Y40271D01*
Y40766D01*
D02*
G37*
G36*
X31442Y40259D02*
X30934D01*
Y39751D01*
X31442D01*
Y40259D01*
D02*
G37*
G36*
X30680D02*
X30172D01*
Y39751D01*
X30680D01*
Y40259D01*
D02*
G37*
G36*
X27813Y42299D02*
Y41804D01*
X28308D01*
X28284Y41924D01*
X28144Y42134D01*
X27934Y42275D01*
X27813Y42299D01*
D02*
G37*
G36*
X27559D02*
X27438Y42275D01*
X27228Y42134D01*
X27088Y41924D01*
X27064Y41804D01*
X27559D01*
Y42299D01*
D02*
G37*
G36*
X28308Y41550D02*
X27813D01*
Y41055D01*
X27934Y41079D01*
X28144Y41219D01*
X28284Y41429D01*
X28308Y41550D01*
D02*
G37*
G36*
X27559D02*
X27064D01*
X27088Y41429D01*
X27228Y41219D01*
X27438Y41079D01*
X27559Y41055D01*
Y41550D01*
D02*
G37*
G36*
X26688Y41021D02*
X26180D01*
Y40513D01*
X26688D01*
Y41021D01*
D02*
G37*
G36*
Y40259D02*
X26180D01*
Y39751D01*
X26688D01*
Y40259D01*
D02*
G37*
G36*
X25926D02*
X25418D01*
Y39751D01*
X25926D01*
Y40259D01*
D02*
G37*
G36*
X9660Y42263D02*
Y41768D01*
X10155D01*
X10131Y41889D01*
X9991Y42099D01*
X9781Y42239D01*
X9660Y42263D01*
D02*
G37*
G36*
X9406D02*
X9285Y42239D01*
X9075Y42099D01*
X8935Y41889D01*
X8911Y41768D01*
X9406D01*
Y42263D01*
D02*
G37*
G36*
X10155Y41514D02*
X9660D01*
Y41019D01*
X9781Y41043D01*
X9991Y41183D01*
X10131Y41393D01*
X10155Y41514D01*
D02*
G37*
G36*
X9406D02*
X8911D01*
X8935Y41393D01*
X9075Y41183D01*
X9285Y41043D01*
X9406Y41019D01*
Y41514D01*
D02*
G37*
G36*
X16419Y41021D02*
X15911D01*
Y40513D01*
X16419D01*
Y41021D01*
D02*
G37*
G36*
X11666D02*
X11158D01*
Y40513D01*
X11666D01*
Y41021D01*
D02*
G37*
G36*
X17181Y40259D02*
X16673D01*
Y39751D01*
X17181D01*
Y40259D01*
D02*
G37*
G36*
X16419D02*
X15911D01*
Y39751D01*
X16419D01*
Y40259D01*
D02*
G37*
G36*
X12428Y40259D02*
X11920D01*
Y39751D01*
X12428D01*
Y40259D01*
D02*
G37*
G36*
X11666D02*
X11158D01*
Y39751D01*
X11666D01*
Y40259D01*
D02*
G37*
G36*
X5178Y42172D02*
Y41677D01*
X5673D01*
X5649Y41797D01*
X5508Y42007D01*
X5298Y42148D01*
X5178Y42172D01*
D02*
G37*
G36*
X4924D02*
X4803Y42148D01*
X4593Y42007D01*
X4452Y41797D01*
X4428Y41677D01*
X4924D01*
Y42172D01*
D02*
G37*
G36*
X5673Y41423D02*
X5178D01*
Y40928D01*
X5298Y40952D01*
X5508Y41092D01*
X5649Y41302D01*
X5673Y41423D01*
D02*
G37*
G36*
X4924D02*
X4428D01*
X4452Y41302D01*
X4593Y41092D01*
X4803Y40952D01*
X4924Y40928D01*
Y41423D01*
D02*
G37*
G36*
X6912Y41021D02*
X6404D01*
Y40513D01*
X6912D01*
Y41021D01*
D02*
G37*
G36*
X7674Y40259D02*
X7166D01*
Y39751D01*
X7674D01*
Y40259D01*
D02*
G37*
G36*
X6912D02*
X6404D01*
Y39751D01*
X6912D01*
Y40259D01*
D02*
G37*
G36*
X9779Y32421D02*
X9271D01*
Y31913D01*
X9779D01*
Y32421D01*
D02*
G37*
G36*
X9017D02*
X8509D01*
Y31913D01*
X9017D01*
Y32421D01*
D02*
G37*
G36*
Y31659D02*
X8509D01*
Y31151D01*
X9017D01*
Y31659D01*
D02*
G37*
G36*
X10541Y31640D02*
Y31144D01*
X11036D01*
X11012Y31265D01*
X10872Y31475D01*
X10662Y31616D01*
X10541Y31640D01*
D02*
G37*
G36*
X9779Y31659D02*
X9271D01*
Y31151D01*
X9664D01*
X9669Y31144D01*
X10287D01*
Y31640D01*
X10166Y31616D01*
X9956Y31475D01*
X9906Y31400D01*
X9779Y31439D01*
Y31659D01*
D02*
G37*
G36*
X11036Y30890D02*
X10541D01*
Y30395D01*
X10662Y30419D01*
X10872Y30560D01*
X11012Y30770D01*
X11036Y30890D01*
D02*
G37*
G36*
X10287D02*
X9792D01*
X9816Y30770D01*
X9956Y30560D01*
X10166Y30419D01*
X10287Y30395D01*
Y30890D01*
D02*
G37*
G36*
X41152Y39992D02*
Y39497D01*
X41647D01*
X41623Y39618D01*
X41483Y39828D01*
X41272Y39968D01*
X41152Y39992D01*
D02*
G37*
G36*
X40898D02*
X40777Y39968D01*
X40567Y39828D01*
X40427Y39618D01*
X40403Y39497D01*
X40898D01*
Y39992D01*
D02*
G37*
G36*
X41647Y39243D02*
X41152D01*
Y38748D01*
X41272Y38772D01*
X41483Y38912D01*
X41623Y39122D01*
X41647Y39243D01*
D02*
G37*
G36*
X40898D02*
X40403D01*
X40427Y39122D01*
X40567Y38912D01*
X40777Y38772D01*
X40898Y38748D01*
Y39243D01*
D02*
G37*
G36*
X39878Y37900D02*
Y37392D01*
X40386D01*
Y37900D01*
X39878D01*
D02*
G37*
G36*
X40386Y37138D02*
X39878D01*
Y36630D01*
X40386D01*
Y37138D01*
D02*
G37*
G36*
X39878Y33038D02*
Y32530D01*
X40386D01*
Y33038D01*
X39878D01*
D02*
G37*
G36*
X40386Y32276D02*
X39878D01*
Y31768D01*
X40386D01*
Y32276D01*
D02*
G37*
G36*
X41529Y44967D02*
Y44472D01*
X42024D01*
X42000Y44593D01*
X41860Y44803D01*
X41650Y44943D01*
X41529Y44967D01*
D02*
G37*
G36*
X41275D02*
X41154Y44943D01*
X40944Y44803D01*
X40804Y44593D01*
X40780Y44472D01*
X41275D01*
Y44967D01*
D02*
G37*
G36*
X42024Y44218D02*
X41529D01*
Y43723D01*
X41650Y43747D01*
X41860Y43887D01*
X42000Y44097D01*
X42024Y44218D01*
D02*
G37*
G36*
X41275D02*
X40780D01*
X40804Y44097D01*
X40944Y43887D01*
X41154Y43747D01*
X41275Y43723D01*
Y44218D01*
D02*
G37*
G36*
X40386Y42763D02*
X39878D01*
Y42255D01*
X40386D01*
Y42763D01*
D02*
G37*
G36*
X39624D02*
X39116D01*
Y42255D01*
X39624D01*
Y42763D01*
D02*
G37*
G36*
Y42001D02*
X39116D01*
Y41493D01*
X39624D01*
Y42001D01*
D02*
G37*
G36*
X9779Y27632D02*
X9271D01*
Y27124D01*
X9779D01*
Y27632D01*
D02*
G37*
G36*
Y26870D02*
X9271D01*
Y26362D01*
X9779D01*
Y26870D01*
D02*
G37*
G36*
X9017D02*
X8509D01*
Y26362D01*
X9017D01*
Y26870D01*
D02*
G37*
G36*
X8950Y26141D02*
Y25646D01*
X9445D01*
X9421Y25767D01*
X9280Y25977D01*
X9070Y26117D01*
X8950Y26141D01*
D02*
G37*
G36*
X8696D02*
X8575Y26117D01*
X8365Y25977D01*
X8224Y25767D01*
X8200Y25646D01*
X8696D01*
Y26141D01*
D02*
G37*
G36*
X9445Y25392D02*
X8950D01*
Y24897D01*
X9070Y24921D01*
X9280Y25061D01*
X9421Y25272D01*
X9445Y25392D01*
D02*
G37*
G36*
X8696D02*
X8200D01*
X8224Y25272D01*
X8365Y25061D01*
X8575Y24921D01*
X8696Y24897D01*
Y25392D01*
D02*
G37*
G36*
X40386Y27414D02*
X39878D01*
Y26906D01*
X40386D01*
Y27414D01*
D02*
G37*
G36*
X32068Y25171D02*
X31763D01*
Y24244D01*
X32068D01*
Y25171D01*
D02*
G37*
G36*
X33338D02*
X32957D01*
Y24117D01*
Y23063D01*
X33338D01*
Y24117D01*
Y25171D01*
D02*
G37*
G36*
X32702D02*
X32321D01*
Y24117D01*
Y23063D01*
X32702D01*
Y24117D01*
Y25171D01*
D02*
G37*
G36*
X32068Y23990D02*
X31763D01*
Y23063D01*
X32068D01*
Y23990D01*
D02*
G37*
G36*
X32421Y21861D02*
Y21366D01*
X32916D01*
X32892Y21487D01*
X32752Y21697D01*
X32542Y21837D01*
X32421Y21861D01*
D02*
G37*
G36*
X32167D02*
X32047Y21837D01*
X31836Y21697D01*
X31696Y21487D01*
X31672Y21366D01*
X32167D01*
Y21861D01*
D02*
G37*
G36*
X32916Y21112D02*
X32421D01*
Y20617D01*
X32542Y20641D01*
X32752Y20781D01*
X32892Y20991D01*
X32916Y21112D01*
D02*
G37*
G36*
X32167D02*
X31672D01*
X31696Y20991D01*
X31836Y20781D01*
X32047Y20641D01*
X32167Y20617D01*
Y21112D01*
D02*
G37*
G36*
X41202Y25362D02*
Y24867D01*
X41698D01*
X41674Y24987D01*
X41533Y25197D01*
X41323Y25338D01*
X41202Y25362D01*
D02*
G37*
G36*
X40948D02*
X40828Y25338D01*
X40618Y25197D01*
X40477Y24987D01*
X40453Y24867D01*
X40948D01*
Y25362D01*
D02*
G37*
G36*
X41698Y24613D02*
X41202D01*
Y24117D01*
X41323Y24141D01*
X41533Y24282D01*
X41674Y24492D01*
X41698Y24613D01*
D02*
G37*
G36*
X40948D02*
X40453D01*
X40477Y24492D01*
X40618Y24282D01*
X40828Y24141D01*
X40948Y24117D01*
Y24613D01*
D02*
G37*
G36*
X40386Y23314D02*
X39878D01*
Y22806D01*
X40386D01*
Y23314D01*
D02*
G37*
G36*
X39624D02*
X39116D01*
Y22806D01*
X39624D01*
Y23314D01*
D02*
G37*
G36*
Y22552D02*
X39116D01*
Y22044D01*
X39624D01*
Y22552D01*
D02*
G37*
G36*
X9779Y8473D02*
X9271D01*
Y7965D01*
X9779D01*
Y8473D01*
D02*
G37*
G36*
Y7711D02*
X9271D01*
Y7203D01*
X9779D01*
Y7711D01*
D02*
G37*
G36*
X9017D02*
X8509D01*
Y7203D01*
X9017D01*
Y7711D01*
D02*
G37*
G36*
X8255Y6246D02*
Y5751D01*
X8750D01*
X8726Y5872D01*
X8586Y6082D01*
X8376Y6222D01*
X8255Y6246D01*
D02*
G37*
G36*
X8001D02*
X7880Y6222D01*
X7670Y6082D01*
X7530Y5872D01*
X7506Y5751D01*
X8001D01*
Y6246D01*
D02*
G37*
G36*
X8750Y5497D02*
X8255D01*
Y5002D01*
X8376Y5026D01*
X8586Y5166D01*
X8726Y5376D01*
X8750Y5497D01*
D02*
G37*
G36*
X8001D02*
X7506D01*
X7530Y5376D01*
X7670Y5166D01*
X7880Y5026D01*
X8001Y5002D01*
Y5497D01*
D02*
G37*
G36*
X41477Y20942D02*
Y20447D01*
X41972D01*
X41948Y20568D01*
X41808Y20778D01*
X41598Y20918D01*
X41477Y20942D01*
D02*
G37*
G36*
X41223D02*
X41102Y20918D01*
X40892Y20778D01*
X40752Y20568D01*
X40728Y20447D01*
X41223D01*
Y20942D01*
D02*
G37*
G36*
X41972Y20193D02*
X41477D01*
Y19698D01*
X41598Y19722D01*
X41808Y19862D01*
X41948Y20072D01*
X41972Y20193D01*
D02*
G37*
G36*
X41223D02*
X40728D01*
X40752Y20072D01*
X40892Y19862D01*
X41102Y19722D01*
X41223Y19698D01*
Y20193D01*
D02*
G37*
G36*
X40386Y18451D02*
X39878D01*
Y17943D01*
X40386D01*
Y18451D01*
D02*
G37*
G36*
X39624D02*
X39116D01*
Y17943D01*
X39624D01*
Y18451D01*
D02*
G37*
G36*
Y17689D02*
X39116D01*
Y17181D01*
X39624D01*
Y17689D01*
D02*
G37*
G36*
X9779Y18052D02*
X9271D01*
Y17544D01*
X9779D01*
Y18052D01*
D02*
G37*
G36*
X9017Y17290D02*
X8509D01*
Y16782D01*
X9017D01*
Y17290D01*
D02*
G37*
G36*
X9779Y13262D02*
X9271D01*
Y12754D01*
X9779D01*
Y13262D01*
D02*
G37*
G36*
X9017D02*
X8509D01*
Y12754D01*
X9017D01*
Y13262D01*
D02*
G37*
G36*
X9779Y12500D02*
X9271D01*
Y11992D01*
X9779D01*
Y12500D01*
D02*
G37*
G36*
X9017D02*
X8509D01*
Y11992D01*
X9017D01*
Y12500D01*
D02*
G37*
G36*
X8068Y11127D02*
Y10632D01*
X8563D01*
X8539Y10752D01*
X8399Y10963D01*
X8189Y11103D01*
X8068Y11127D01*
D02*
G37*
G36*
X7814D02*
X7693Y11103D01*
X7483Y10963D01*
X7343Y10752D01*
X7319Y10632D01*
X7814D01*
Y11127D01*
D02*
G37*
G36*
X8563Y10378D02*
X8068D01*
Y9883D01*
X8189Y9907D01*
X8399Y10047D01*
X8539Y10257D01*
X8563Y10378D01*
D02*
G37*
G36*
X7814D02*
X7319D01*
X7343Y10257D01*
X7483Y10047D01*
X7693Y9907D01*
X7814Y9883D01*
Y10378D01*
D02*
G37*
G36*
X17726Y10033D02*
X17218D01*
Y9525D01*
X17726D01*
Y10033D01*
D02*
G37*
G36*
X16964D02*
X16456D01*
Y9525D01*
X16964D01*
Y10033D01*
D02*
G37*
G36*
Y9271D02*
X16456D01*
Y8763D01*
X16964D01*
Y9271D01*
D02*
G37*
G36*
X14697Y8399D02*
Y7904D01*
X15193D01*
X15169Y8024D01*
X15028Y8234D01*
X14818Y8375D01*
X14697Y8399D01*
D02*
G37*
G36*
X14443D02*
X14323Y8375D01*
X14113Y8234D01*
X13972Y8024D01*
X13948Y7904D01*
X14443D01*
Y8399D01*
D02*
G37*
G36*
X15193Y7649D02*
X14697D01*
Y7154D01*
X14818Y7178D01*
X15028Y7319D01*
X15169Y7529D01*
X15193Y7649D01*
D02*
G37*
G36*
X14443D02*
X13948D01*
X13972Y7529D01*
X14113Y7319D01*
X14323Y7178D01*
X14443Y7154D01*
Y7649D01*
D02*
G37*
G36*
X22624Y10033D02*
X22116D01*
Y9525D01*
X22624D01*
Y10033D01*
D02*
G37*
G36*
X21862D02*
X21354D01*
Y9525D01*
X21862D01*
Y10033D01*
D02*
G37*
G36*
X22624Y9271D02*
X22116D01*
Y8763D01*
X22624D01*
Y9271D01*
D02*
G37*
G36*
X21862D02*
X21354D01*
Y8763D01*
X21862D01*
Y9271D01*
D02*
G37*
G36*
X19939Y9212D02*
Y8717D01*
X20434D01*
X20410Y8838D01*
X20270Y9048D01*
X20060Y9188D01*
X19939Y9212D01*
D02*
G37*
G36*
X19685D02*
X19564Y9188D01*
X19354Y9048D01*
X19214Y8838D01*
X19190Y8717D01*
X19685D01*
Y9212D01*
D02*
G37*
G36*
X20434Y8463D02*
X19939D01*
Y7968D01*
X20060Y7992D01*
X20270Y8132D01*
X20410Y8342D01*
X20434Y8463D01*
D02*
G37*
G36*
X19685D02*
X19190D01*
X19214Y8342D01*
X19354Y8132D01*
X19564Y7992D01*
X19685Y7968D01*
Y8463D01*
D02*
G37*
G36*
X37320Y10033D02*
X36812D01*
Y9525D01*
X37320D01*
Y10033D01*
D02*
G37*
G36*
X36558D02*
X36050D01*
Y9525D01*
X36558D01*
Y10033D01*
D02*
G37*
G36*
X32421D02*
X31913D01*
Y9525D01*
X32421D01*
Y10033D01*
D02*
G37*
G36*
X31659D02*
X31151D01*
Y9525D01*
X31659D01*
Y10033D01*
D02*
G37*
G36*
X37320Y9271D02*
X36812D01*
Y8763D01*
X37320D01*
Y9271D01*
D02*
G37*
G36*
X36558D02*
X36050D01*
Y8763D01*
X36558D01*
Y9271D01*
D02*
G37*
G36*
X32421Y9271D02*
X31913D01*
Y8763D01*
X32421D01*
Y9271D01*
D02*
G37*
G36*
X31659D02*
X31151D01*
Y8763D01*
X31659D01*
Y9271D01*
D02*
G37*
G36*
X38989Y8856D02*
Y8361D01*
X39484D01*
X39460Y8482D01*
X39320Y8692D01*
X39110Y8832D01*
X38989Y8856D01*
D02*
G37*
G36*
X38735D02*
X38614Y8832D01*
X38404Y8692D01*
X38264Y8482D01*
X38240Y8361D01*
X38735D01*
Y8856D01*
D02*
G37*
G36*
X39484Y8107D02*
X38989D01*
Y7612D01*
X39110Y7636D01*
X39320Y7777D01*
X39460Y7987D01*
X39484Y8107D01*
D02*
G37*
G36*
X38735D02*
X38240D01*
X38264Y7987D01*
X38404Y7777D01*
X38614Y7636D01*
X38735Y7612D01*
Y8107D01*
D02*
G37*
G36*
X42218Y10033D02*
X41710D01*
Y9525D01*
X42218D01*
Y10033D01*
D02*
G37*
G36*
X41456D02*
X40948D01*
Y9525D01*
X41456D01*
Y10033D01*
D02*
G37*
G36*
X42218Y9271D02*
X41710D01*
Y8763D01*
X42218D01*
Y9271D01*
D02*
G37*
G36*
X43815Y8750D02*
Y8255D01*
X44310D01*
X44286Y8376D01*
X44146Y8586D01*
X43936Y8726D01*
X43815Y8750D01*
D02*
G37*
G36*
X43561D02*
X43440Y8726D01*
X43230Y8586D01*
X43090Y8376D01*
X43066Y8255D01*
X43561D01*
Y8750D01*
D02*
G37*
G36*
X44310Y8001D02*
X43815D01*
Y7506D01*
X43936Y7530D01*
X44146Y7670D01*
X44286Y7880D01*
X44310Y8001D01*
D02*
G37*
G36*
X43561D02*
X43066D01*
X43090Y7880D01*
X43230Y7670D01*
X43440Y7530D01*
X43561Y7506D01*
Y8001D01*
D02*
G37*
%LPD*%
D11*
X19304Y34290D02*
X21412D01*
X21476Y34354D01*
X11793Y41783D02*
X16256Y37320D01*
X34544Y21844D02*
X35369Y22670D01*
Y24117D01*
X34099D02*
Y25718D01*
X40219Y34694D02*
X41148Y35624D01*
Y37265D01*
X28204Y16701D02*
Y17336D01*
Y16066D02*
Y16701D01*
X32829Y15431D02*
X34798Y13462D01*
X28204Y15431D02*
X32829D01*
X36558Y8128D02*
X36685Y8001D01*
X34544Y8128D02*
X36558D01*
X26289Y14224D02*
X26321Y14192D01*
X28173D01*
X28204Y14160D01*
X11176Y24892D02*
X12840D01*
X12891Y24943D01*
Y25006D01*
X13970Y21707D02*
Y21844D01*
Y21707D02*
X14160Y21516D01*
X26784Y36894D02*
Y38100D01*
X20574Y45466D02*
X22408D01*
X22908D01*
X4572Y22352D02*
Y23773D01*
Y24273D01*
X45153Y28566D02*
Y29718D01*
Y28566D02*
X45176Y28543D01*
Y28043D02*
Y28543D01*
X37859Y18809D02*
X37919Y18869D01*
X27527Y4862D02*
X29187D01*
X27027D02*
X27527D01*
X36639Y18809D02*
X37859D01*
X13716Y13716D02*
Y14224D01*
X32190Y27043D02*
X36542D01*
X37846Y28347D01*
Y30226D01*
X36576Y31496D02*
X37846Y30226D01*
X7266Y42010D02*
X9004Y43748D01*
X7039Y41783D02*
X7266Y42010D01*
X28194Y7112D02*
X30897D01*
X26001D02*
X28194D01*
X44450Y5969D02*
X46482Y8001D01*
X26990Y5969D02*
X44450D01*
X26550Y5529D02*
X26990Y5969D01*
X26050Y5568D02*
X26832Y6350D01*
X26050Y4885D02*
Y5568D01*
X26832Y6350D02*
X39932D01*
X41583Y8001D01*
X35415Y6731D02*
X36685Y8001D01*
X26289Y6731D02*
X35415D01*
X25550Y5992D02*
X26289Y6731D01*
X26550Y4885D02*
Y5529D01*
X26527Y4862D02*
X26550Y4885D01*
X26027Y4862D02*
X26050Y4885D01*
X25550D02*
Y5992D01*
X25527Y4862D02*
X25550Y4885D01*
X30897Y7112D02*
X31786Y8001D01*
X25050Y6161D02*
X26001Y7112D01*
X25050Y4885D02*
Y6161D01*
X26193Y8001D02*
X26888D01*
X24550Y6358D02*
X26193Y8001D01*
X24550Y4885D02*
Y6358D01*
X25027Y4862D02*
X25050Y4885D01*
X24527Y4862D02*
X24550Y4885D01*
X24027Y4862D02*
Y5963D01*
X21989Y8001D02*
X24027Y5963D01*
X18459Y6633D02*
X22772D01*
X23527Y5878D01*
X17091Y8001D02*
X18459Y6633D01*
X23527Y4862D02*
Y5878D01*
X15331Y4862D02*
X23027D01*
X12192Y8001D02*
X15331Y4862D01*
X41148Y28956D02*
Y29972D01*
Y30075D02*
Y32403D01*
Y29972D02*
Y30075D01*
Y32403D02*
X41402Y32149D01*
X41148Y28956D02*
X44038Y26066D01*
X41148Y22679D02*
X43512Y25043D01*
X41148Y12954D02*
X45176Y16982D01*
X41148Y17816D02*
X43082Y19751D01*
X45176Y16982D02*
Y24043D01*
X43082Y23249D02*
X44354Y24520D01*
X43082Y19751D02*
Y23249D01*
X43146Y25543D02*
X45176D01*
X41148Y27541D02*
X43146Y25543D01*
X41148Y46990D02*
X43793Y44345D01*
Y28299D02*
Y44345D01*
Y28299D02*
X44038Y28054D01*
Y28037D02*
Y28054D01*
Y28037D02*
X44509Y27566D01*
X45153D01*
X45176Y27543D01*
X44259Y27066D02*
X45153D01*
X43082Y28242D02*
X44259Y27066D01*
X43082Y28242D02*
Y40357D01*
X45165Y28054D02*
X45176Y28043D01*
X41565Y41874D02*
X43082Y40357D01*
X41402Y41874D02*
X41565D01*
X41148Y42128D02*
X41402Y41874D01*
X45153Y27066D02*
X45176Y27043D01*
X41148Y37265D02*
X42418Y35995D01*
X44038Y26066D02*
X45153D01*
X44156Y26543D02*
X45176D01*
X42418Y28281D02*
X44156Y26543D01*
X42418Y28281D02*
Y35995D01*
X45153Y26066D02*
X45176Y26043D01*
X43512Y25043D02*
X45176D01*
X44354Y24520D02*
X45153D01*
X45176Y24543D01*
X26835Y35674D02*
X27407D01*
X26784Y35624D02*
X26835Y35674D01*
X32444Y42037D02*
X35306D01*
X25908Y41928D02*
Y45466D01*
Y41928D02*
X26053Y41783D01*
X25408Y43799D02*
Y45466D01*
X24027Y42418D02*
X25408Y43799D01*
X24908Y43838D02*
Y45466D01*
X23996Y42926D02*
X24908Y43838D01*
X24408Y43877D02*
Y45466D01*
X23898Y43367D02*
X24408Y43877D01*
X13376Y43367D02*
X23898D01*
X17689Y42926D02*
X23996D01*
X16546Y41783D02*
X17689Y42926D01*
X11793Y41783D02*
X13376Y43367D01*
X4699Y44196D02*
X22782D01*
X23385Y44799D01*
Y45443D01*
X23408Y45466D01*
X23908Y43942D02*
Y45466D01*
X21935Y42418D02*
X24027D01*
X23714Y43748D02*
X23908Y43942D01*
X9004Y43748D02*
X23714D01*
X21300Y41783D02*
X21935Y42418D01*
X29447Y41783D02*
X30807D01*
X26431Y44799D02*
X29447Y41783D01*
X26431Y44799D02*
Y45443D01*
X26931Y44958D02*
X29523D01*
X26908Y44981D02*
X26931Y44958D01*
X26908Y44981D02*
Y45466D01*
X26408D02*
X26431Y45443D01*
X29523Y44958D02*
X32444Y42037D01*
X35306D02*
X35560Y41783D01*
X2286D02*
X4699Y44196D01*
D12*
X22860Y11176D02*
Y12891D01*
X15331Y17932D02*
X15381Y17982D01*
Y19648D01*
X15431Y19698D01*
X7747Y14503D02*
X11430Y18186D01*
X7747Y12627D02*
Y14503D01*
X30153Y20850D02*
X32194Y18809D01*
X30153Y20850D02*
Y25006D01*
X32829Y17081D02*
Y18809D01*
X32258Y16510D02*
X32829Y17081D01*
X31274Y16510D02*
X32258D01*
X25004Y18186D02*
X29598D01*
X31274Y16510D01*
X33465Y16701D02*
Y18809D01*
X33020Y16256D02*
X33465Y16701D01*
X31169Y16256D02*
X33020D01*
X29493Y17932D02*
X31169Y16256D01*
X25385Y17932D02*
X29493D01*
X23518Y16701D02*
X25004Y18186D01*
X14160Y19698D02*
Y21516D01*
X20122Y28956D02*
X23027Y31861D01*
X16256Y28956D02*
X20122D01*
X20423Y28043D02*
X26098Y33718D01*
X18391Y28043D02*
X20423D01*
X16066Y25718D02*
X18391Y28043D01*
X20764Y27686D02*
X26162Y33083D01*
X18758Y27686D02*
X20764D01*
X16701Y25629D02*
X18758Y27686D01*
X22098Y35624D02*
X23027Y34694D01*
Y31861D02*
Y34694D01*
X21476Y35624D02*
X22098D01*
X16256Y31496D02*
X19050D01*
X13716D02*
Y33528D01*
X22860Y25006D02*
X30153D01*
X17336D02*
X22860D01*
X22896Y24971D01*
Y17336D02*
Y24971D01*
X30153Y25006D02*
X32190Y27043D01*
X26162Y33083D02*
X26784D01*
X16701Y25006D02*
Y25629D01*
X16066Y25006D02*
Y25718D01*
X26098Y33718D02*
X26784D01*
Y32449D02*
X32190Y27043D01*
X26784Y33083D02*
X29803D01*
X33931Y28956D01*
X34036D01*
X33020Y30226D02*
X35052D01*
X29528Y33718D02*
X33020Y30226D01*
X26784Y33718D02*
X29528D01*
X35052Y30226D02*
X36322Y28956D01*
X36576D01*
X23518Y16066D02*
X25385Y17932D01*
X22896Y16066D02*
X23518D01*
X22896Y16701D02*
X23518D01*
X16066Y22273D02*
X22273Y16066D01*
X16066Y22273D02*
Y25006D01*
X22273Y16066D02*
X22896D01*
X16701Y22283D02*
Y25006D01*
Y22283D02*
X22283Y16701D01*
X22896D01*
X16546Y41783D02*
X21456Y36874D01*
X7266Y41756D02*
Y42010D01*
X11085Y15365D02*
X14795Y19075D01*
X11085Y6386D02*
Y15365D01*
X10414Y15964D02*
X13526Y19075D01*
X10414Y10505D02*
Y15964D01*
X7747Y7838D02*
X10414Y10505D01*
X14795Y19075D02*
Y19698D01*
X7747Y3048D02*
X11085Y6386D01*
X13526Y19075D02*
Y19698D01*
X9652Y19304D02*
X10046Y19698D01*
X9634Y19304D02*
X9652D01*
X10046Y19698D02*
X12891D01*
X7747Y17417D02*
X9634Y19304D01*
X11111Y28043D02*
X13526Y25629D01*
X8793Y28043D02*
X11111D01*
X7747Y26997D02*
X8793Y28043D01*
X13526Y25006D02*
Y25629D01*
X7747Y22207D02*
X8937Y23397D01*
X14444D01*
X15431Y24384D01*
Y25006D01*
X7747Y30394D02*
X9396D01*
X14160Y25629D01*
Y25006D02*
Y25629D01*
X11430Y28994D02*
Y32258D01*
X9716Y33972D02*
X11430Y32258D01*
X5143Y33972D02*
X9716D01*
X11430Y28994D02*
X14795Y25629D01*
Y25006D02*
Y25629D01*
X7747Y30394D02*
Y31786D01*
X5126Y27773D02*
X7747Y30394D01*
X4572Y27773D02*
X5126D01*
X5143Y33972D02*
X7747Y36576D01*
X5143Y28359D02*
Y33972D01*
X5057Y28273D02*
X5143Y28359D01*
X4572Y28273D02*
X5057D01*
X4572Y27273D02*
X7471D01*
X7747Y26997D01*
X4572Y26773D02*
X5612D01*
X7747Y24638D01*
Y22207D02*
Y24638D01*
X5467Y24773D02*
X5842Y24398D01*
X4572Y24773D02*
X5467D01*
X5842Y4953D02*
Y24398D01*
X5612Y25273D02*
X6096Y24789D01*
X4572Y25273D02*
X5612D01*
X6096Y9489D02*
Y24789D01*
X6604Y18560D02*
Y25222D01*
X5553Y26273D02*
X6604Y25222D01*
X4572Y26273D02*
X5553D01*
X6604Y18560D02*
X7747Y17417D01*
X5694Y25773D02*
X6350Y25117D01*
Y14024D02*
Y25117D01*
Y14024D02*
X7747Y12627D01*
X6096Y9489D02*
X7747Y7838D01*
X4572Y25773D02*
X5694D01*
X5842Y4953D02*
X7747Y3048D01*
X31837Y11786D02*
X42697D01*
X46482Y8001D01*
X28827Y14795D02*
X31837Y11786D01*
X28204Y14795D02*
X28827D01*
X38647Y10937D02*
X41583Y8001D01*
X31415Y10937D02*
X38647D01*
X28827Y13526D02*
X31415Y10937D01*
X28204Y13526D02*
X28827D01*
X28194Y7112D02*
X28204Y7122D01*
Y12891D01*
X26193Y8001D02*
Y12755D01*
X23518Y15431D02*
X26193Y12755D01*
X22896Y15431D02*
X23518D01*
X24027Y5963D02*
Y13017D01*
X23518Y13526D02*
X24027Y13017D01*
X22896Y13526D02*
X23518D01*
X19050Y9960D02*
Y10937D01*
X17091Y8001D02*
X19050Y9960D01*
Y10937D02*
X22273Y14160D01*
X22896D01*
X12192Y8001D02*
X15621Y11430D01*
X18908D01*
X22273Y14795D01*
X22896D01*
X28765Y34988D02*
X35560Y41783D01*
X26784Y34988D02*
X28765D01*
X29447Y37664D02*
Y41783D01*
X27407Y35624D02*
X29447Y37664D01*
X26784Y35624D02*
X27407D01*
X24130Y38291D02*
Y39878D01*
X24148D01*
X26053Y41783D01*
X24130Y38291D02*
X26162Y36258D01*
X26784D01*
X23114Y35896D02*
Y39969D01*
X21300Y41783D02*
X23114Y39969D01*
Y35896D02*
X24656Y34354D01*
X26784D01*
X12764Y36258D02*
X21476D01*
X7266Y41756D02*
X12764Y36258D01*
X13017Y34988D02*
X21476D01*
X9652Y38354D02*
X13017Y34988D01*
X5715Y38354D02*
X9652D01*
X38608Y28613D02*
Y44450D01*
X41148Y46990D01*
X34735Y24740D02*
X38608Y28613D01*
X34735Y24117D02*
Y24740D01*
X38862Y28281D02*
Y39842D01*
X41148Y42128D01*
X36005Y25423D02*
X38862Y28281D01*
X36005Y24117D02*
Y25423D01*
X36639Y25566D02*
X41148Y30075D01*
X36639Y24117D02*
Y25566D01*
X40831Y27223D02*
X41148Y27541D01*
X40831Y26162D02*
Y27223D01*
X34099Y19431D02*
X40831Y26162D01*
X34099Y18809D02*
Y19431D01*
X37910Y21336D02*
X39805D01*
X41148Y22679D01*
X36005Y19431D02*
X37910Y21336D01*
X36005Y18809D02*
Y19431D01*
X38354Y15748D02*
X41148Y12954D01*
X37173Y15748D02*
X38354D01*
X37028Y16528D02*
X39860D01*
X35369Y18186D02*
X37028Y16528D01*
X39860D02*
X41148Y17816D01*
X35369Y18186D02*
Y18809D01*
X34735Y18186D02*
X37173Y15748D01*
X34735Y18186D02*
Y18809D01*
X2286Y41783D02*
X5715Y38354D01*
D13*
X21476Y36894D02*
D03*
Y36258D02*
D03*
Y35624D02*
D03*
Y34988D02*
D03*
Y34354D02*
D03*
Y33718D02*
D03*
Y33083D02*
D03*
Y32449D02*
D03*
X26784D02*
D03*
Y33083D02*
D03*
Y33718D02*
D03*
Y34354D02*
D03*
Y34988D02*
D03*
Y35624D02*
D03*
Y36258D02*
D03*
Y36894D02*
D03*
X28204Y12891D02*
D03*
Y13526D02*
D03*
Y14160D02*
D03*
Y14795D02*
D03*
Y15431D02*
D03*
Y16066D02*
D03*
Y16701D02*
D03*
Y17336D02*
D03*
X22896D02*
D03*
Y16701D02*
D03*
Y16066D02*
D03*
Y15431D02*
D03*
Y14795D02*
D03*
Y14160D02*
D03*
Y13526D02*
D03*
Y12891D02*
D03*
D14*
X7747Y36576D02*
D03*
X9144D02*
D03*
X7747Y31786D02*
D03*
X9144D02*
D03*
X7747Y26997D02*
D03*
X9144D02*
D03*
X7747Y22207D02*
D03*
X9144D02*
D03*
X7747Y12627D02*
D03*
X9144D02*
D03*
X7747Y17417D02*
D03*
X9144D02*
D03*
X7747Y7838D02*
D03*
X9144D02*
D03*
X7747Y3048D02*
D03*
X9144D02*
D03*
X41148Y46990D02*
D03*
X39751D02*
D03*
X41148Y42128D02*
D03*
X39751D02*
D03*
X41148Y37265D02*
D03*
X39751D02*
D03*
X41148Y32403D02*
D03*
X39751D02*
D03*
X41148Y27541D02*
D03*
X39751D02*
D03*
X41148Y22679D02*
D03*
X39751D02*
D03*
X41148Y17816D02*
D03*
X39751D02*
D03*
X41148Y12954D02*
D03*
X39751D02*
D03*
D15*
X1996Y22090D02*
D03*
X1986Y29950D02*
D03*
X47752Y30226D02*
D03*
X47762Y22366D02*
D03*
D16*
X4572Y23773D02*
D03*
Y24273D02*
D03*
Y24773D02*
D03*
Y25273D02*
D03*
Y25773D02*
D03*
Y26273D02*
D03*
Y26773D02*
D03*
Y27273D02*
D03*
Y27773D02*
D03*
Y28273D02*
D03*
X45176Y28543D02*
D03*
Y28043D02*
D03*
Y27543D02*
D03*
Y27043D02*
D03*
Y26543D02*
D03*
Y26043D02*
D03*
Y25543D02*
D03*
Y25043D02*
D03*
Y24543D02*
D03*
Y24043D02*
D03*
D17*
X20725Y48042D02*
D03*
X28585Y48052D02*
D03*
X29210Y2286D02*
D03*
X21350Y2276D02*
D03*
D18*
X22408Y45466D02*
D03*
X22908D02*
D03*
X23408D02*
D03*
X23908D02*
D03*
X24408D02*
D03*
X24908D02*
D03*
X25408D02*
D03*
X25908D02*
D03*
X26408D02*
D03*
X26908D02*
D03*
X27527Y4862D02*
D03*
X27027D02*
D03*
X26527D02*
D03*
X26027D02*
D03*
X25527D02*
D03*
X25027D02*
D03*
X24527D02*
D03*
X24027D02*
D03*
X23527D02*
D03*
X23027D02*
D03*
D19*
X2286Y41783D02*
D03*
Y40386D02*
D03*
X7039Y41783D02*
D03*
Y40386D02*
D03*
X11793Y41783D02*
D03*
Y40386D02*
D03*
X16546Y41783D02*
D03*
Y40386D02*
D03*
X21300Y41783D02*
D03*
Y40386D02*
D03*
X26053Y41783D02*
D03*
Y40386D02*
D03*
X30807Y41783D02*
D03*
Y40386D02*
D03*
X35560Y41783D02*
D03*
Y40386D02*
D03*
X46482Y8001D02*
D03*
Y9398D02*
D03*
X41583Y8001D02*
D03*
Y9398D02*
D03*
X36685Y8001D02*
D03*
Y9398D02*
D03*
X31786Y8001D02*
D03*
Y9398D02*
D03*
X26888Y8001D02*
D03*
Y9398D02*
D03*
X21989Y8001D02*
D03*
Y9398D02*
D03*
X17091Y8001D02*
D03*
Y9398D02*
D03*
X12192Y8001D02*
D03*
Y9398D02*
D03*
D20*
X12891Y19698D02*
D03*
X13526D02*
D03*
X14160D02*
D03*
X14795D02*
D03*
X15431D02*
D03*
X16066D02*
D03*
X16701D02*
D03*
X17336D02*
D03*
Y25006D02*
D03*
X16701D02*
D03*
X16066D02*
D03*
X15431D02*
D03*
X14795D02*
D03*
X14160D02*
D03*
X13526D02*
D03*
X12891D02*
D03*
X36639Y24117D02*
D03*
X36005D02*
D03*
X35369D02*
D03*
X34735D02*
D03*
X34099D02*
D03*
X33465D02*
D03*
X32829D02*
D03*
X32194D02*
D03*
Y18809D02*
D03*
X32829D02*
D03*
X33465D02*
D03*
X34099D02*
D03*
X34735D02*
D03*
X35369D02*
D03*
X36005D02*
D03*
X36639D02*
D03*
D30*
X13716Y13716D02*
D03*
Y16256D02*
D03*
Y28956D02*
D03*
Y31496D02*
D03*
X16256D02*
D03*
Y28956D02*
D03*
Y16256D02*
D03*
Y13716D02*
D03*
D31*
X36576Y28956D02*
D03*
X34036D02*
D03*
X36576Y31496D02*
D03*
X34036D02*
D03*
X36576Y36576D02*
D03*
X34036D02*
D03*
D32*
X10414Y31017D02*
D03*
X14570Y7777D02*
D03*
X19812Y8590D02*
D03*
X26098Y17081D02*
D03*
X43688Y8128D02*
D03*
X38862Y8234D02*
D03*
X32294Y21239D02*
D03*
X41025Y39370D02*
D03*
X41402Y44345D02*
D03*
X32702Y40893D02*
D03*
X27686Y41677D02*
D03*
X9533Y41641D02*
D03*
X16673Y37320D02*
D03*
X5051Y41550D02*
D03*
X36830Y14767D02*
D03*
X41075Y24740D02*
D03*
X41350Y20320D02*
D03*
X8823Y25519D02*
D03*
X7941Y10505D02*
D03*
X8128Y5624D02*
D03*
X15331Y17932D02*
D03*
X11430Y18186D02*
D03*
X19304Y34290D02*
D03*
X34099Y25718D02*
D03*
X40132Y34544D02*
D03*
X34544Y8128D02*
D03*
X34798Y13462D02*
D03*
X26289Y14224D02*
D03*
X11176Y24892D02*
D03*
X13970Y21844D02*
D03*
X34544D02*
D03*
X19050Y31496D02*
D03*
X13716Y33528D02*
D03*
X26784Y38100D02*
D03*
X20574Y45466D02*
D03*
X4572Y22352D02*
D03*
X45153Y29718D02*
D03*
X37919Y18869D02*
D03*
X22860Y11176D02*
D03*
X29187Y4862D02*
D03*
M02*
