G04*
G04 #@! TF.GenerationSoftware,Altium Limited,Altium Designer,19.0.10 (269)*
G04*
G04 Layer_Physical_Order=1*
G04 Layer_Color=255*
%FSLAX43Y43*%
%MOMM*%
G71*
G01*
G75*
%ADD11C,0.254*%
%ADD12R,1.500X0.300*%
%ADD13R,1.524X1.524*%
%ADD18C,0.508*%
%ADD19C,0.381*%
%ADD20C,0.127*%
%ADD21C,1.270*%
D11*
X59061Y2800D02*
X59561Y3300D01*
X61250D01*
X59061Y2800D02*
X61250D01*
X59055Y2794D02*
X59061Y2800D01*
X15312Y8666D02*
X15409Y8763D01*
X14699Y8666D02*
X15312D01*
X12859Y6825D02*
X14699Y8666D01*
X18748Y7460D02*
X19398D01*
X18113Y6825D02*
X18748Y7460D01*
X19398D02*
X20701Y8763D01*
X24002Y7460D02*
X24690D01*
X23367Y6825D02*
X24002Y7460D01*
X24690D02*
X25993Y8763D01*
X46609Y4800D02*
X61250D01*
X52578Y6731D02*
X54009Y5300D01*
X61250D01*
X57023Y6477D02*
X57106D01*
X57783Y5800D01*
X61250D01*
X53958Y2921D02*
X55337Y4300D01*
X50419Y2921D02*
X53958D01*
X56797Y3800D02*
X61250D01*
X55410Y2413D02*
X56797Y3800D01*
X55337Y4300D02*
X61250D01*
X9542Y8763D02*
X10118D01*
X7604Y6825D02*
X9542Y8763D01*
X4288D02*
X4826D01*
X2350Y6825D02*
X4288Y8763D01*
X30620Y4826D02*
X40259D01*
X28621Y6825D02*
X30620Y4826D01*
X40259D02*
X43307Y7874D01*
X59455Y6300D02*
X61250D01*
X57881Y7874D02*
X59455Y6300D01*
X43307Y7874D02*
X57881D01*
X35240Y5461D02*
X40132D01*
X33876Y6825D02*
X35240Y5461D01*
X40132D02*
X43053Y8382D01*
X57912D01*
X59494Y6800D01*
X61250D01*
X41195Y8890D02*
X58039D01*
X59629Y7300D02*
X61250D01*
X58039Y8890D02*
X59629Y7300D01*
X39130Y6825D02*
X41195Y8890D01*
D12*
X61250Y7300D02*
D03*
Y6800D02*
D03*
Y6300D02*
D03*
Y5800D02*
D03*
Y5300D02*
D03*
Y4800D02*
D03*
Y4300D02*
D03*
Y3800D02*
D03*
Y3300D02*
D03*
Y2800D02*
D03*
D13*
X39130Y6825D02*
D03*
Y3396D02*
D03*
X33876Y6825D02*
D03*
Y3396D02*
D03*
X28621Y6825D02*
D03*
Y3396D02*
D03*
X23367Y6825D02*
D03*
Y3396D02*
D03*
X18113Y6825D02*
D03*
Y3396D02*
D03*
X12859Y6825D02*
D03*
Y3396D02*
D03*
X7604Y6825D02*
D03*
Y3396D02*
D03*
X2350Y6825D02*
D03*
Y3396D02*
D03*
D18*
X57404Y1143D02*
X59055Y2794D01*
X41383Y1143D02*
X57404D01*
X39130Y3396D02*
X41383Y1143D01*
X33876Y3396D02*
X39130D01*
X2350D02*
X7604D01*
X12859D01*
X18113D01*
X23367D01*
X28621D01*
X33876D01*
D19*
X59055Y2800D02*
X59061D01*
D20*
X61176Y4374D02*
X61250Y4300D01*
D21*
X46609Y4800D02*
D03*
X50419Y2921D02*
D03*
X55410Y2413D02*
D03*
X57023Y6477D02*
D03*
X52578Y6731D02*
D03*
X25993Y8763D02*
D03*
X20701D02*
D03*
X15409D02*
D03*
X10118D02*
D03*
X4826D02*
D03*
M02*
