G04*
G04 #@! TF.GenerationSoftware,Altium Limited,Altium Designer,19.0.10 (269)*
G04*
G04 Layer_Color=255*
%FSLAX43Y43*%
%MOMM*%
G71*
G01*
G75*
%ADD13R,1.600X0.356*%
%ADD14R,0.762X0.762*%
%ADD15R,2.500X2.000*%
%ADD16R,1.270X0.300*%
%ADD17R,2.000X2.500*%
%ADD18R,0.300X1.270*%
%ADD19R,0.762X0.762*%
%ADD20R,0.356X1.600*%
%ADD30C,1.500*%
%ADD31C,1.524*%
D13*
X21476Y36894D02*
D03*
Y36258D02*
D03*
Y35624D02*
D03*
Y34988D02*
D03*
Y34354D02*
D03*
Y33718D02*
D03*
Y33083D02*
D03*
Y32449D02*
D03*
X26784D02*
D03*
Y33083D02*
D03*
Y33718D02*
D03*
Y34354D02*
D03*
Y34988D02*
D03*
Y35624D02*
D03*
Y36258D02*
D03*
Y36894D02*
D03*
X28204Y12891D02*
D03*
Y13526D02*
D03*
Y14160D02*
D03*
Y14795D02*
D03*
Y15431D02*
D03*
Y16066D02*
D03*
Y16701D02*
D03*
Y17336D02*
D03*
X22896D02*
D03*
Y16701D02*
D03*
Y16066D02*
D03*
Y15431D02*
D03*
Y14795D02*
D03*
Y14160D02*
D03*
Y13526D02*
D03*
Y12891D02*
D03*
D14*
X7747Y36576D02*
D03*
X9144D02*
D03*
X7747Y31786D02*
D03*
X9144D02*
D03*
X7747Y26997D02*
D03*
X9144D02*
D03*
X7747Y22207D02*
D03*
X9144D02*
D03*
X7747Y12627D02*
D03*
X9144D02*
D03*
X7747Y17417D02*
D03*
X9144D02*
D03*
X7747Y7838D02*
D03*
X9144D02*
D03*
X7747Y3048D02*
D03*
X9144D02*
D03*
X41148Y46990D02*
D03*
X39751D02*
D03*
X41148Y42128D02*
D03*
X39751D02*
D03*
X41148Y37265D02*
D03*
X39751D02*
D03*
X41148Y32403D02*
D03*
X39751D02*
D03*
X41148Y27541D02*
D03*
X39751D02*
D03*
X41148Y22679D02*
D03*
X39751D02*
D03*
X41148Y17816D02*
D03*
X39751D02*
D03*
X41148Y12954D02*
D03*
X39751D02*
D03*
D15*
X1996Y22090D02*
D03*
X1986Y29950D02*
D03*
X47752Y30226D02*
D03*
X47762Y22366D02*
D03*
D16*
X4572Y23773D02*
D03*
Y24273D02*
D03*
Y24773D02*
D03*
Y25273D02*
D03*
Y25773D02*
D03*
Y26273D02*
D03*
Y26773D02*
D03*
Y27273D02*
D03*
Y27773D02*
D03*
Y28273D02*
D03*
X45176Y28543D02*
D03*
Y28043D02*
D03*
Y27543D02*
D03*
Y27043D02*
D03*
Y26543D02*
D03*
Y26043D02*
D03*
Y25543D02*
D03*
Y25043D02*
D03*
Y24543D02*
D03*
Y24043D02*
D03*
D17*
X20725Y48042D02*
D03*
X28585Y48052D02*
D03*
X29210Y2286D02*
D03*
X21350Y2276D02*
D03*
D18*
X22408Y45466D02*
D03*
X22908D02*
D03*
X23408D02*
D03*
X23908D02*
D03*
X24408D02*
D03*
X24908D02*
D03*
X25408D02*
D03*
X25908D02*
D03*
X26408D02*
D03*
X26908D02*
D03*
X27527Y4862D02*
D03*
X27027D02*
D03*
X26527D02*
D03*
X26027D02*
D03*
X25527D02*
D03*
X25027D02*
D03*
X24527D02*
D03*
X24027D02*
D03*
X23527D02*
D03*
X23027D02*
D03*
D19*
X2286Y41783D02*
D03*
Y40386D02*
D03*
X7039Y41783D02*
D03*
Y40386D02*
D03*
X11793Y41783D02*
D03*
Y40386D02*
D03*
X16546Y41783D02*
D03*
Y40386D02*
D03*
X21300Y41783D02*
D03*
Y40386D02*
D03*
X26053Y41783D02*
D03*
Y40386D02*
D03*
X30807Y41783D02*
D03*
Y40386D02*
D03*
X35560Y41783D02*
D03*
Y40386D02*
D03*
X46482Y8001D02*
D03*
Y9398D02*
D03*
X41583Y8001D02*
D03*
Y9398D02*
D03*
X36685Y8001D02*
D03*
Y9398D02*
D03*
X31786Y8001D02*
D03*
Y9398D02*
D03*
X26888Y8001D02*
D03*
Y9398D02*
D03*
X21989Y8001D02*
D03*
Y9398D02*
D03*
X17091Y8001D02*
D03*
Y9398D02*
D03*
X12192Y8001D02*
D03*
Y9398D02*
D03*
D20*
X12891Y19698D02*
D03*
X13526D02*
D03*
X14160D02*
D03*
X14795D02*
D03*
X15431D02*
D03*
X16066D02*
D03*
X16701D02*
D03*
X17336D02*
D03*
Y25006D02*
D03*
X16701D02*
D03*
X16066D02*
D03*
X15431D02*
D03*
X14795D02*
D03*
X14160D02*
D03*
X13526D02*
D03*
X12891D02*
D03*
X36639Y24117D02*
D03*
X36005D02*
D03*
X35369D02*
D03*
X34735D02*
D03*
X34099D02*
D03*
X33465D02*
D03*
X32829D02*
D03*
X32194D02*
D03*
Y18809D02*
D03*
X32829D02*
D03*
X33465D02*
D03*
X34099D02*
D03*
X34735D02*
D03*
X35369D02*
D03*
X36005D02*
D03*
X36639D02*
D03*
D30*
X13716Y13716D02*
D03*
Y16256D02*
D03*
Y28956D02*
D03*
Y31496D02*
D03*
X16256D02*
D03*
Y28956D02*
D03*
Y16256D02*
D03*
Y13716D02*
D03*
D31*
X36576Y28956D02*
D03*
X34036D02*
D03*
X36576Y31496D02*
D03*
X34036D02*
D03*
X36576Y36576D02*
D03*
X34036D02*
D03*
M02*
